# This file uses centimeters as units for non-parametric coordinates.

mtllib crate.mtl
g default
v -1.577184 0.000000 1.577184
v 1.577184 0.000000 1.577184
v -1.577184 3.154367 1.577184
v 1.577184 3.154367 1.577184
v -1.577184 3.154367 -1.577184
v 1.577184 3.154367 -1.577184
v -1.577184 0.000000 -1.577184
v 1.577184 0.000000 -1.577184
v -1.377184 0.200000 1.577184
v 1.377184 0.200000 1.577184
v 1.377184 2.954368 1.577184
v -1.377184 2.954368 1.577184
v -1.377184 2.954368 -1.577184
v 1.377184 2.954368 -1.577184
v 1.377184 0.200000 -1.577184
v -1.377184 0.200000 -1.577184
v 1.577184 0.200000 -1.377184
v 1.577184 0.200000 1.377184
v 1.577184 2.954368 -1.377184
v 1.577184 2.954368 1.377184
v -1.577184 0.200000 -1.377184
v -1.577184 0.200000 1.377184
v -1.577184 2.954368 1.377184
v -1.577184 2.954368 -1.377184
v -1.377184 3.154367 1.377184
v 1.377184 3.154367 1.377184
v 1.377184 3.154367 -1.377184
v -1.377184 3.154367 -1.377184
v -1.377184 0.000000 -1.377184
v 1.377184 0.000000 -1.377184
v 1.377184 0.000000 1.377184
v -1.377184 0.000000 1.377184
v -1.270255 0.306929 1.454726
v 1.270255 0.306929 1.454726
v 1.270255 2.847439 1.454726
v -1.270255 2.847439 1.454726
v -1.270255 3.031910 1.270255
v 1.270255 3.031910 1.270255
v 1.270255 3.031910 -1.270255
v -1.270255 3.031910 -1.270255
v -1.270255 2.847439 -1.454726
v 1.270255 2.847439 -1.454726
v 1.270255 0.306929 -1.454726
v -1.270255 0.306929 -1.454726
v -1.270255 0.122458 -1.270255
v 1.270255 0.122458 -1.270255
v 1.270255 0.122458 1.270255
v -1.270255 0.122458 1.270255
v 1.454726 0.306929 -1.270255
v 1.454726 0.306929 1.270255
v 1.454726 2.847439 -1.270255
v 1.454726 2.847439 1.270255
v -1.454726 0.306929 -1.270255
v -1.454726 0.306929 1.270255
v -1.454726 2.847439 1.270255
v -1.454726 2.847439 -1.270255
vt 0.058449 0.541455
vt 0.058546 0.358450
vt 0.241551 0.358545
vt 0.241455 0.541551
vt 0.048122 0.551889
vt 0.048111 0.348124
vt 0.251877 0.348111
vt 0.251889 0.551878
vt 0.266397 0.566395
vt 0.266393 0.333621
vt 0.266391 0.566392
vt 0.266392 0.333608
vt 0.058445 0.541457
vt 0.058540 0.358445
vt 0.241554 0.358555
vt 0.241442 0.541553
vt 0.048119 0.551892
vt 0.048105 0.348119
vt 0.251882 0.348122
vt 0.251875 0.551881
vt 0.033606 0.566395
vt 0.033603 0.333605
vt 0.033608 0.333610
vt 0.033610 0.566391
vt 0.058545 0.358450
vt 0.241551 0.358545
vt 0.241455 0.541551
vt 0.058450 0.541454
vt 0.048111 0.348123
vt 0.251878 0.348111
vt 0.251889 0.551878
vt 0.048124 0.551889
vt 0.058556 0.358448
vt 0.241553 0.358558
vt 0.241459 0.541556
vt 0.058445 0.541460
vt 0.048123 0.348120
vt 0.251879 0.348123
vt 0.251894 0.551882
vt 0.048118 0.551894
vt 0.033622 0.333605
vt 0.033603 0.566395
vt 0.058546 0.358448
vt 0.241551 0.358546
vt 0.241454 0.541552
vt 0.058449 0.541454
vt 0.048112 0.348122
vt 0.251878 0.348112
vt 0.251888 0.551878
vt 0.048122 0.551888
vt 0.033610 0.333608
vt 0.058545 0.358449
vt 0.241550 0.358546
vt 0.241455 0.541550
vt 0.058449 0.541454
vt 0.048111 0.348122
vt 0.251877 0.348111
vt 0.251889 0.551877
vt 0.048123 0.551889
vt 0.033609 0.566392
vt 0.033608 0.333608
vt 0.033608 0.566390
vt 0.033609 0.333610
vt 0.266392 0.566390
vt 0.266392 0.333609
vt 0.033608 0.566392
vt 0.266391 0.333609
vt 0.266391 0.333608
vt 0.266392 0.566392
vt 0.266391 0.566392
vt 0.266397 0.333621
vt 0.266377 0.566395
vn 0.000000 0.000000 1.000000
vn 0.000000 0.000000 1.000000
vn 0.000000 0.000000 1.000000
vn 0.000000 0.000000 1.000000
vn 0.000000 1.000000 0.000000
vn 0.000000 1.000000 0.000000
vn 0.000000 1.000000 0.000000
vn 0.000000 1.000000 0.000000
vn 0.000000 0.000000 -1.000000
vn 0.000000 0.000000 -1.000000
vn 0.000000 0.000000 -1.000000
vn 0.000000 0.000000 -1.000000
vn 0.000000 -1.000000 0.000000
vn 0.000000 -1.000000 0.000000
vn 0.000000 -1.000000 0.000000
vn 0.000000 -1.000000 0.000000
vn 1.000000 0.000000 0.000000
vn 1.000000 0.000000 0.000000
vn 1.000000 0.000000 0.000000
vn 1.000000 0.000000 0.000000
vn -1.000000 0.000000 0.000000
vn -1.000000 0.000000 0.000000
vn -1.000000 0.000000 0.000000
vn -1.000000 0.000000 0.000000
vn -0.000000 0.000000 1.000000
vn -0.000000 0.000000 1.000000
vn -0.000000 0.000000 1.000000
vn -0.000000 0.000000 1.000000
vn -0.000000 0.000000 1.000000
vn -0.000000 0.000000 1.000000
vn -0.000000 0.000000 1.000000
vn -0.000000 0.000000 1.000000
vn 0.000000 0.000000 -1.000000
vn 0.000000 0.000000 -1.000000
vn 0.000000 0.000000 -1.000000
vn 0.000000 0.000000 -1.000000
vn 0.000000 0.000000 -1.000000
vn 0.000000 0.000000 -1.000000
vn 0.000000 0.000000 -1.000000
vn 0.000000 0.000000 -1.000000
vn 1.000000 0.000000 0.000000
vn 1.000000 0.000000 0.000000
vn 1.000000 0.000000 0.000000
vn 1.000000 0.000000 0.000000
vn 1.000000 0.000000 0.000000
vn 1.000000 0.000000 0.000000
vn 1.000000 0.000000 0.000000
vn 1.000000 0.000000 0.000000
vn -1.000000 0.000000 0.000000
vn -1.000000 0.000000 0.000000
vn -1.000000 0.000000 0.000000
vn -1.000000 0.000000 0.000000
vn -1.000000 0.000000 0.000000
vn -1.000000 0.000000 0.000000
vn -1.000000 0.000000 0.000000
vn -1.000000 0.000000 0.000000
vn 0.000000 1.000000 -0.000000
vn 0.000000 1.000000 -0.000000
vn 0.000000 1.000000 -0.000000
vn 0.000000 1.000000 -0.000000
vn 0.000000 1.000000 0.000000
vn 0.000000 1.000000 0.000000
vn 0.000000 1.000000 0.000000
vn 0.000000 1.000000 0.000000
vn 0.000000 -1.000000 0.000000
vn 0.000000 -1.000000 0.000000
vn 0.000000 -1.000000 0.000000
vn 0.000000 -1.000000 0.000000
vn 0.000000 -1.000000 0.000000
vn 0.000000 -1.000000 0.000000
vn 0.000000 -1.000000 0.000000
vn 0.000000 -1.000000 0.000000
vn 0.000000 0.753251 0.657733
vn 0.000000 0.753251 0.657733
vn 0.000000 0.753251 0.657733
vn 0.000000 0.753251 0.657733
vn -0.753251 0.000000 0.657733
vn -0.753251 0.000000 0.657733
vn -0.753251 0.000000 0.657733
vn -0.753251 0.000000 0.657733
vn 0.000000 -0.753251 0.657733
vn 0.000000 -0.753251 0.657733
vn 0.000000 -0.753251 0.657733
vn 0.000000 -0.753251 0.657733
vn 0.753251 0.000000 0.657733
vn 0.753251 0.000000 0.657733
vn 0.753251 0.000000 0.657733
vn 0.753251 0.000000 0.657733
vn 0.000000 0.657733 -0.753251
vn 0.000000 0.657733 -0.753251
vn 0.000000 0.657733 -0.753251
vn 0.000000 0.657733 -0.753251
vn -0.753251 0.657733 0.000000
vn -0.753251 0.657733 0.000000
vn -0.753251 0.657733 0.000000
vn -0.753251 0.657733 0.000000
vn 0.000000 0.657733 0.753251
vn 0.000000 0.657733 0.753251
vn 0.000000 0.657733 0.753251
vn 0.000000 0.657733 0.753251
vn 0.753251 0.657733 0.000000
vn 0.753251 0.657733 0.000000
vn 0.753251 0.657733 0.000000
vn 0.753251 0.657733 0.000000
vn 0.000000 -0.753250 -0.657734
vn 0.000000 -0.753250 -0.657734
vn 0.000000 -0.753250 -0.657734
vn 0.000000 -0.753250 -0.657734
vn -0.753251 0.000000 -0.657733
vn -0.753251 0.000000 -0.657733
vn -0.753251 0.000000 -0.657733
vn -0.753251 0.000000 -0.657733
vn 0.000000 0.753251 -0.657733
vn 0.000000 0.753251 -0.657733
vn 0.000000 0.753251 -0.657733
vn 0.000000 0.753251 -0.657733
vn 0.753251 0.000000 -0.657733
vn 0.753251 0.000000 -0.657733
vn 0.753251 0.000000 -0.657733
vn 0.753251 0.000000 -0.657733
vn 0.000000 -0.657733 0.753251
vn 0.000000 -0.657733 0.753251
vn 0.000000 -0.657733 0.753251
vn 0.000000 -0.657733 0.753251
vn -0.753251 -0.657733 0.000000
vn -0.753251 -0.657733 0.000000
vn -0.753251 -0.657733 0.000000
vn -0.753251 -0.657733 0.000000
vn 0.000000 -0.657733 -0.753251
vn 0.000000 -0.657733 -0.753251
vn 0.000000 -0.657733 -0.753251
vn 0.000000 -0.657733 -0.753251
vn 0.753251 -0.657733 0.000000
vn 0.753251 -0.657733 0.000000
vn 0.753251 -0.657733 0.000000
vn 0.753251 -0.657733 0.000000
vn 0.657734 0.753251 0.000000
vn 0.657734 0.753251 0.000000
vn 0.657734 0.753251 0.000000
vn 0.657734 0.753251 0.000000
vn 0.657733 0.000000 0.753251
vn 0.657733 0.000000 0.753251
vn 0.657733 0.000000 0.753251
vn 0.657733 0.000000 0.753251
vn 0.657734 -0.753251 0.000000
vn 0.657734 -0.753251 0.000000
vn 0.657734 -0.753251 0.000000
vn 0.657734 -0.753251 0.000000
vn 0.657733 0.000000 -0.753251
vn 0.657733 0.000000 -0.753251
vn 0.657733 0.000000 -0.753251
vn 0.657733 0.000000 -0.753251
vn -0.657734 0.753251 0.000000
vn -0.657734 0.753251 0.000000
vn -0.657734 0.753251 0.000000
vn -0.657734 0.753251 0.000000
vn -0.657733 0.000000 -0.753251
vn -0.657733 0.000000 -0.753251
vn -0.657733 0.000000 -0.753251
vn -0.657733 0.000000 -0.753251
vn -0.657734 -0.753251 0.000000
vn -0.657734 -0.753251 0.000000
vn -0.657734 -0.753251 0.000000
vn -0.657734 -0.753251 0.000000
vn -0.657733 0.000000 0.753251
vn -0.657733 0.000000 0.753251
vn -0.657733 0.000000 0.753251
vn -0.657733 0.000000 0.753251
s off
g crate
usemtl initialShadingGroup
f 33/43/1 34/44/2 35/45/3 36/46/4
f 37/25/5 38/26/6 39/27/7 40/28/8
f 41/52/9 42/53/10 43/54/11 44/55/12
f 45/33/13 46/34/14 47/35/15 48/36/16
f 50/1/17 49/2/18 51/3/19 52/4/20
f 53/13/21 54/14/22 55/15/23 56/16/24
s 1
f 1/51/25 2/65/26 10/48/27 9/47/28
f 2/65/26 4/70/29 11/49/30 10/48/27
f 4/70/29 3/62/31 12/50/32 11/49/30
f 3/62/31 1/51/25 9/47/28 12/50/32
s 2
f 5/61/33 6/67/34 14/57/35 13/56/36
f 6/67/34 8/64/37 15/58/38 14/57/35
f 8/64/37 7/60/39 16/59/40 15/58/38
f 7/60/39 5/61/33 13/56/36 16/59/40
s 3
f 2/66/41 8/63/42 17/6/43 18/5/44
f 8/63/42 6/68/45 19/7/46 17/6/43
f 6/68/45 4/69/47 20/8/48 19/7/46
f 4/69/47 2/66/41 18/5/44 20/8/48
s 4
f 7/21/49 1/22/50 22/18/51 21/17/52
f 1/22/50 3/71/53 23/19/54 22/18/51
f 3/71/53 5/72/55 24/20/56 23/19/54
f 5/72/55 7/21/49 21/17/52 24/20/56
s 5
f 3/23/57 4/12/58 26/30/59 25/29/60
f 4/12/58 6/11/61 27/31/62 26/30/59
f 6/11/61 5/24/63 28/32/64 27/31/62
f 5/24/63 3/23/57 25/29/60 28/32/64
s 6
f 7/41/65 8/10/66 30/38/67 29/37/68
f 8/10/66 2/9/69 31/39/70 30/38/67
f 2/9/69 1/42/71 32/40/72 31/39/70
f 1/42/71 7/41/65 29/37/68 32/40/72
s off
f 9/47/73 10/48/74 34/44/75 33/43/76
f 10/48/77 11/49/78 35/45/79 34/44/80
f 11/49/81 12/50/82 36/46/83 35/45/84
f 12/50/85 9/47/86 33/43/87 36/46/88
f 25/29/89 26/30/90 38/26/91 37/25/92
f 26/30/93 27/31/94 39/27/95 38/26/96
f 27/31/97 28/32/98 40/28/99 39/27/100
f 28/32/101 25/29/102 37/25/103 40/28/104
f 13/56/105 14/57/106 42/53/107 41/52/108
f 14/57/109 15/58/110 43/54/111 42/53/112
f 15/58/113 16/59/114 44/55/115 43/54/116
f 16/59/117 13/56/118 41/52/119 44/55/120
f 29/37/121 30/38/122 46/34/123 45/33/124
f 30/38/125 31/39/126 47/35/127 46/34/128
f 31/39/129 32/40/130 48/36/131 47/35/132
f 32/40/133 29/37/134 45/33/135 48/36/136
f 18/5/137 17/6/138 49/2/139 50/1/140
f 17/6/141 19/7/142 51/3/143 49/2/144
f 19/7/145 20/8/146 52/4/147 51/3/148
f 20/8/149 18/5/150 50/1/151 52/4/152
f 21/17/153 22/18/154 54/14/155 53/13/156
f 22/18/157 23/19/158 55/15/159 54/14/160
f 23/19/161 24/20/162 56/16/163 55/15/164
f 24/20/165 21/17/166 53/13/167 56/16/168
