# This file uses centimeters as units for non-parametric coordinates.

mtllib fence.mtl
g default
v -4.000000 0.000000 0.161332
v -3.000000 0.000000 0.161332
v -3.658502 6.823640 0.161332
v -3.341498 6.823640 0.161332
v -3.658502 6.823640 -0.161332
v -3.341498 6.823640 -0.161332
v -4.000000 0.000000 -0.161332
v -3.000000 0.000000 -0.161332
v -4.000000 5.724127 0.161332
v -4.000000 5.724127 -0.161332
v -3.000000 5.724127 -0.161332
v -3.000000 5.724127 0.161332
v 1.250000 0.000000 0.161332
v 2.250000 0.000000 0.161332
v 1.591498 6.823640 0.161332
v 1.908502 6.823640 0.161332
v 1.591498 6.823640 -0.161332
v 1.908502 6.823640 -0.161332
v 1.250000 0.000000 -0.161332
v 2.250000 0.000000 -0.161332
v 1.250000 5.724127 0.161332
v 1.250000 5.724127 -0.161332
v 2.250000 5.724127 -0.161332
v 2.250000 5.724127 0.161332
v -4.000000 1.000000 -0.175000
v 4.000000 1.000000 -0.175000
v -4.000000 2.000000 -0.175000
v 4.000000 2.000000 -0.175000
v -4.000000 2.000000 -0.525000
v 4.000000 2.000000 -0.525000
v -4.000000 1.000000 -0.525000
v 4.000000 1.000000 -0.525000
v -0.500000 0.000000 0.161332
v 0.500000 0.000000 0.161332
v -0.158502 6.823640 0.161332
v 0.158502 6.823640 0.161332
v -0.158502 6.823640 -0.161332
v 0.158502 6.823640 -0.161332
v -0.500000 0.000000 -0.161332
v 0.500000 0.000000 -0.161332
v -0.500000 5.724127 0.161332
v -0.500000 5.724127 -0.161332
v 0.500000 5.724127 -0.161332
v 0.500000 5.724127 0.161332
v -2.250000 0.000000 0.161332
v -1.250000 0.000000 0.161332
v -1.908502 6.823640 0.161332
v -1.591498 6.823640 0.161332
v -1.908502 6.823640 -0.161332
v -1.591498 6.823640 -0.161332
v -2.250000 0.000000 -0.161332
v -1.250000 0.000000 -0.161332
v -2.250000 5.724127 0.161332
v -2.250000 5.724127 -0.161332
v -1.250000 5.724127 -0.161332
v -1.250000 5.724127 0.161332
v -4.000000 4.500000 -0.175000
v 4.000000 4.500000 -0.175000
v -4.000000 5.500000 -0.175000
v 4.000000 5.500000 -0.175000
v -4.000000 5.500000 -0.525000
v 4.000000 5.500000 -0.525000
v -4.000000 4.500000 -0.525000
v 4.000000 4.500000 -0.525000
v 3.000000 0.000000 0.161332
v 4.000000 0.000000 0.161332
v 3.341498 6.823640 0.161332
v 3.658502 6.823640 0.161332
v 3.341498 6.823640 -0.161332
v 3.658502 6.823640 -0.161332
v 3.000000 0.000000 -0.161332
v 4.000000 0.000000 -0.161332
v 3.000000 5.724127 0.161332
v 3.000000 5.724127 -0.161332
v 4.000000 5.724127 -0.161332
v 4.000000 5.724127 0.161332
vt 0.580924 0.175437
vt 0.580924 0.159508
vt 0.863505 0.159508
vt 0.863505 0.175437
vt 0.920342 0.159508
vt 0.920342 0.175437
vt 0.580924 0.175437
vt 0.580924 0.159508
vt 0.863505 0.159508
vt 0.863505 0.175437
vt 0.920342 0.159508
vt 0.920342 0.175437
vt 0.580924 0.175437
vt 0.580924 0.159508
vt 0.863505 0.159508
vt 0.863505 0.175437
vt 0.920342 0.159508
vt 0.920342 0.175437
vt 0.580924 0.175437
vt 0.580924 0.159508
vt 0.863505 0.159508
vt 0.863505 0.175437
vt 0.920342 0.159508
vt 0.920342 0.175437
vt 0.582157 0.097519
vt 0.582157 0.080241
vt 0.631524 0.080241
vt 0.631524 0.097519
vt 0.582157 0.097519
vt 0.582157 0.080241
vt 0.631524 0.080241
vt 0.631524 0.097519
vt 0.580924 0.175437
vt 0.580924 0.159508
vt 0.863505 0.159508
vt 0.863505 0.175437
vt 0.920342 0.159508
vt 0.920342 0.175437
vt 0.580924 0.175437
vt 0.580924 0.159508
vt 0.863505 0.159508
vt 0.863505 0.175437
vt 0.920342 0.159508
vt 0.920342 0.175437
vt 0.580924 0.175437
vt 0.580924 0.159508
vt 0.863505 0.159508
vt 0.863505 0.175437
vt 0.920342 0.159508
vt 0.920342 0.175437
vt 0.580924 0.175437
vt 0.580924 0.159508
vt 0.863505 0.159508
vt 0.863505 0.175437
vt 0.920342 0.159508
vt 0.920342 0.175437
vt 0.582157 0.097519
vt 0.582157 0.080241
vt 0.631524 0.080241
vt 0.631524 0.097519
vt 0.582157 0.097519
vt 0.582157 0.080241
vt 0.631524 0.080241
vt 0.631524 0.097519
vt 0.580924 0.175437
vt 0.580924 0.159508
vt 0.863505 0.159508
vt 0.863505 0.175437
vt 0.920342 0.159508
vt 0.920342 0.175437
vt 0.580924 0.175437
vt 0.580924 0.159508
vt 0.863505 0.159508
vt 0.863505 0.175437
vt 0.920342 0.159508
vt 0.920342 0.175437
vt 0.943236 0.159508
vt 0.943236 0.175157
vt 0.927307 0.175157
vt 0.927307 0.159508
vt 0.582157 0.103830
vt 0.631524 0.103830
vt 0.631524 0.119759
vt 0.582157 0.119759
vt 0.943236 0.159508
vt 0.943236 0.175157
vt 0.927307 0.175157
vt 0.927307 0.159508
vt 0.582157 0.103831
vt 0.631524 0.103830
vt 0.631524 0.119759
vt 0.582157 0.119759
vt 0.580924 0.135919
vt 0.975857 0.135919
vt 0.975857 0.153197
vt 0.580924 0.153197
vt 0.580924 0.135919
vt 0.975857 0.135919
vt 0.975857 0.153197
vt 0.580924 0.153197
vt 0.943236 0.159508
vt 0.943236 0.175157
vt 0.927307 0.175157
vt 0.927307 0.159508
vt 0.582157 0.103831
vt 0.631524 0.103830
vt 0.631524 0.119759
vt 0.582157 0.119759
vt 0.943236 0.159508
vt 0.943236 0.175157
vt 0.927307 0.175157
vt 0.927307 0.159508
vt 0.582157 0.103830
vt 0.631524 0.103830
vt 0.631524 0.119759
vt 0.582157 0.119759
vt 0.580924 0.135919
vt 0.975857 0.135919
vt 0.975857 0.153197
vt 0.580924 0.153197
vt 0.580924 0.135919
vt 0.975857 0.135919
vt 0.975857 0.153197
vt 0.580924 0.153197
vt 0.943236 0.159508
vt 0.943236 0.175157
vt 0.927307 0.175157
vt 0.927307 0.159508
vt 0.582157 0.103831
vt 0.631524 0.103830
vt 0.631524 0.119759
vt 0.582157 0.119759
vt 0.975720 0.080241
vt 0.975720 0.129607
vt 0.693139 0.129607
vt 0.693139 0.080241
vt 0.638860 0.112749
vt 0.638860 0.097099
vt 0.693139 0.129607
vt 0.693139 0.080241
vt 0.975720 0.080241
vt 0.975720 0.129607
vt 0.638860 0.112749
vt 0.638860 0.097099
vt 0.975720 0.080241
vt 0.975720 0.129607
vt 0.693139 0.129607
vt 0.693139 0.080241
vt 0.638860 0.112749
vt 0.638860 0.097099
vt 0.693140 0.129607
vt 0.693139 0.080241
vt 0.975720 0.080241
vt 0.975720 0.129607
vt 0.638860 0.112749
vt 0.638860 0.097099
vt 0.580924 0.024563
vt 0.975857 0.024563
vt 0.975857 0.073930
vt 0.580924 0.073930
vt 0.580924 0.024563
vt 0.975857 0.024563
vt 0.975857 0.073930
vt 0.580924 0.073930
vt 0.975720 0.080241
vt 0.975720 0.129607
vt 0.693139 0.129607
vt 0.693139 0.080241
vt 0.638860 0.112749
vt 0.638860 0.097099
vt 0.693139 0.129607
vt 0.693139 0.080241
vt 0.975720 0.080241
vt 0.975720 0.129607
vt 0.638860 0.112749
vt 0.638860 0.097099
vt 0.975720 0.080241
vt 0.975720 0.129607
vt 0.693139 0.129607
vt 0.693139 0.080241
vt 0.638860 0.112749
vt 0.638860 0.097099
vt 0.693140 0.129607
vt 0.693140 0.080241
vt 0.975720 0.080241
vt 0.975720 0.129607
vt 0.638860 0.112749
vt 0.638860 0.097099
vt 0.580924 0.024563
vt 0.975857 0.024563
vt 0.975857 0.073930
vt 0.580924 0.073930
vt 0.580924 0.024563
vt 0.975857 0.024563
vt 0.975857 0.073930
vt 0.580924 0.073930
vt 0.975720 0.080241
vt 0.975720 0.129607
vt 0.693139 0.129607
vt 0.693139 0.080241
vt 0.638860 0.112749
vt 0.638860 0.097099
vt 0.693139 0.129607
vt 0.693139 0.080241
vt 0.975720 0.080241
vt 0.975720 0.129607
vt 0.638860 0.112749
vt 0.638860 0.097099
vn 0.000000 0.000000 1.000000
vn 0.000000 0.000000 1.000000
vn 0.000000 0.000000 1.000000
vn 0.000000 0.000000 1.000000
vn 0.000000 1.000000 0.000000
vn 0.000000 1.000000 0.000000
vn 0.000000 1.000000 0.000000
vn 0.000000 1.000000 0.000000
vn 0.000000 0.000000 -1.000000
vn 0.000000 0.000000 -1.000000
vn 0.000000 0.000000 -1.000000
vn 0.000000 0.000000 -1.000000
vn 0.000000 -1.000000 0.000000
vn 0.000000 -1.000000 0.000000
vn 0.000000 -1.000000 0.000000
vn 0.000000 -1.000000 0.000000
vn 1.000000 0.000000 0.000000
vn 1.000000 0.000000 0.000000
vn 0.998750 0.049984 0.000000
vn 0.998750 0.049984 0.000000
vn -1.000000 0.000000 0.000000
vn -1.000000 0.000000 0.000000
vn -0.998750 0.049984 0.000000
vn -0.998750 0.049984 0.000000
vn -0.954998 0.296613 0.000000
vn -0.954998 0.296613 0.000000
vn 0.000000 0.000000 -1.000000
vn 0.000000 0.000000 -1.000000
vn 0.954998 0.296613 0.000000
vn 0.954998 0.296613 0.000000
vn 0.000000 0.000000 1.000000
vn 0.000000 0.000000 1.000000
vn 0.000000 0.000000 1.000000
vn 0.000000 0.000000 1.000000
vn 0.000000 0.000000 1.000000
vn 0.000000 0.000000 1.000000
vn 0.000000 1.000000 0.000000
vn 0.000000 1.000000 0.000000
vn 0.000000 1.000000 0.000000
vn 0.000000 1.000000 0.000000
vn 0.000000 0.000000 -1.000000
vn 0.000000 0.000000 -1.000000
vn 0.000000 0.000000 -1.000000
vn 0.000000 0.000000 -1.000000
vn 0.000000 -1.000000 0.000000
vn 0.000000 -1.000000 0.000000
vn 0.000000 -1.000000 0.000000
vn 0.000000 -1.000000 0.000000
vn 1.000000 0.000000 0.000000
vn 1.000000 0.000000 0.000000
vn 0.998750 0.049984 0.000000
vn 0.998750 0.049984 0.000000
vn -1.000000 0.000000 0.000000
vn -1.000000 0.000000 0.000000
vn -0.998750 0.049984 0.000000
vn -0.998750 0.049984 0.000000
vn -0.954998 0.296613 0.000000
vn -0.954998 0.296613 0.000000
vn 0.000000 0.000000 -1.000000
vn 0.000000 0.000000 -1.000000
vn 0.954998 0.296613 0.000000
vn 0.954998 0.296613 0.000000
vn 0.000000 0.000000 1.000000
vn 0.000000 0.000000 1.000000
vn 0.000000 0.000000 1.000000
vn 0.000000 0.000000 1.000000
vn 0.000000 0.000000 1.000000
vn 0.000000 0.000000 1.000000
vn 0.000000 1.000000 0.000000
vn 0.000000 1.000000 0.000000
vn 0.000000 1.000000 0.000000
vn 0.000000 1.000000 0.000000
vn 0.000000 0.000000 -1.000000
vn 0.000000 0.000000 -1.000000
vn 0.000000 0.000000 -1.000000
vn 0.000000 0.000000 -1.000000
vn 0.000000 -1.000000 0.000000
vn 0.000000 -1.000000 0.000000
vn 0.000000 -1.000000 0.000000
vn 0.000000 -1.000000 0.000000
vn 1.000000 0.000000 0.000000
vn 1.000000 0.000000 0.000000
vn 1.000000 0.000000 0.000000
vn 1.000000 0.000000 0.000000
vn -1.000000 0.000000 0.000000
vn -1.000000 0.000000 0.000000
vn -1.000000 0.000000 0.000000
vn -1.000000 0.000000 0.000000
vn 0.000000 0.000000 1.000000
vn 0.000000 0.000000 1.000000
vn 0.000000 0.000000 1.000000
vn 0.000000 0.000000 1.000000
vn 0.000000 1.000000 0.000000
vn 0.000000 1.000000 0.000000
vn 0.000000 1.000000 0.000000
vn 0.000000 1.000000 0.000000
vn 0.000000 0.000000 -1.000000
vn 0.000000 0.000000 -1.000000
vn 0.000000 0.000000 -1.000000
vn 0.000000 0.000000 -1.000000
vn 0.000000 -1.000000 0.000000
vn 0.000000 -1.000000 0.000000
vn 0.000000 -1.000000 0.000000
vn 0.000000 -1.000000 0.000000
vn 1.000000 0.000000 0.000000
vn 1.000000 0.000000 0.000000
vn 0.998750 0.049984 0.000000
vn 0.998750 0.049984 0.000000
vn -1.000000 0.000000 0.000000
vn -1.000000 0.000000 0.000000
vn -0.998750 0.049984 0.000000
vn -0.998750 0.049984 0.000000
vn -0.954998 0.296613 0.000000
vn -0.954998 0.296613 0.000000
vn 0.000000 0.000000 -1.000000
vn 0.000000 0.000000 -1.000000
vn 0.954998 0.296613 0.000000
vn 0.954998 0.296613 0.000000
vn 0.000000 0.000000 1.000000
vn 0.000000 0.000000 1.000000
vn 0.000000 0.000000 1.000000
vn 0.000000 0.000000 1.000000
vn 0.000000 0.000000 1.000000
vn 0.000000 0.000000 1.000000
vn 0.000000 1.000000 0.000000
vn 0.000000 1.000000 0.000000
vn 0.000000 1.000000 0.000000
vn 0.000000 1.000000 0.000000
vn 0.000000 0.000000 -1.000000
vn 0.000000 0.000000 -1.000000
vn 0.000000 0.000000 -1.000000
vn 0.000000 0.000000 -1.000000
vn 0.000000 -1.000000 0.000000
vn 0.000000 -1.000000 0.000000
vn 0.000000 -1.000000 0.000000
vn 0.000000 -1.000000 0.000000
vn 1.000000 0.000000 0.000000
vn 1.000000 0.000000 0.000000
vn 0.998750 0.049984 0.000000
vn 0.998750 0.049984 0.000000
vn -1.000000 0.000000 0.000000
vn -1.000000 0.000000 0.000000
vn -0.998750 0.049984 0.000000
vn -0.998750 0.049984 0.000000
vn -0.954998 0.296613 0.000000
vn -0.954998 0.296613 0.000000
vn 0.000000 0.000000 -1.000000
vn 0.000000 0.000000 -1.000000
vn 0.954998 0.296613 0.000000
vn 0.954998 0.296613 0.000000
vn 0.000000 0.000000 1.000000
vn 0.000000 0.000000 1.000000
vn 0.000000 0.000000 1.000000
vn 0.000000 0.000000 1.000000
vn 0.000000 0.000000 1.000000
vn 0.000000 0.000000 1.000000
vn 0.000000 1.000000 0.000000
vn 0.000000 1.000000 0.000000
vn 0.000000 1.000000 0.000000
vn 0.000000 1.000000 0.000000
vn 0.000000 0.000000 -1.000000
vn 0.000000 0.000000 -1.000000
vn 0.000000 0.000000 -1.000000
vn 0.000000 0.000000 -1.000000
vn 0.000000 -1.000000 0.000000
vn 0.000000 -1.000000 0.000000
vn 0.000000 -1.000000 0.000000
vn 0.000000 -1.000000 0.000000
vn 1.000000 0.000000 0.000000
vn 1.000000 0.000000 0.000000
vn 1.000000 0.000000 0.000000
vn 1.000000 0.000000 0.000000
vn -1.000000 0.000000 0.000000
vn -1.000000 0.000000 0.000000
vn -1.000000 0.000000 0.000000
vn -1.000000 0.000000 0.000000
vn 0.000000 0.000000 1.000000
vn 0.000000 0.000000 1.000000
vn 0.000000 0.000000 1.000000
vn 0.000000 0.000000 1.000000
vn 0.000000 1.000000 0.000000
vn 0.000000 1.000000 0.000000
vn 0.000000 1.000000 0.000000
vn 0.000000 1.000000 0.000000
vn 0.000000 0.000000 -1.000000
vn 0.000000 0.000000 -1.000000
vn 0.000000 0.000000 -1.000000
vn 0.000000 0.000000 -1.000000
vn 0.000000 -1.000000 0.000000
vn 0.000000 -1.000000 0.000000
vn 0.000000 -1.000000 0.000000
vn 0.000000 -1.000000 0.000000
vn 1.000000 0.000000 0.000000
vn 1.000000 0.000000 0.000000
vn 0.998750 0.049984 0.000000
vn 0.998750 0.049984 0.000000
vn -1.000000 0.000000 0.000000
vn -1.000000 0.000000 0.000000
vn -0.998750 0.049984 0.000000
vn -0.998750 0.049984 0.000000
vn -0.954998 0.296613 0.000000
vn -0.954998 0.296613 0.000000
vn 0.000000 0.000000 -1.000000
vn 0.000000 0.000000 -1.000000
vn 0.954998 0.296613 0.000000
vn 0.954998 0.296613 0.000000
vn 0.000000 0.000000 1.000000
vn 0.000000 0.000000 1.000000
s 1
g fence
usemtl initialShadingGroup
f 1/133/1 2/134/2 12/135/3 9/136/4
s off
f 3/77/5 4/78/6 6/79/7 5/80/8
s 2
f 10/139/9 11/140/10 8/141/11 7/142/12
s off
f 7/81/13 8/82/14 2/83/15 1/84/16
s 3
f 2/1/17 8/2/18 11/3/19 12/4/20
s 4
f 7/7/21 1/8/22 9/9/23 10/10/24
f 10/10/24 9/9/23 3/11/25 5/12/26
s 2
f 5/143/27 6/144/28 11/140/10 10/139/9
s 3
f 12/4/20 11/3/19 6/5/29 4/6/30
s 1
f 9/136/4 12/135/3 4/137/31 3/138/32
s 5
f 13/145/33 14/146/34 24/147/35 21/148/36
s off
f 15/85/37 16/86/38 18/87/39 17/88/40
s 6
f 22/151/41 23/152/42 20/153/43 19/154/44
s off
f 19/89/45 20/90/46 14/91/47 13/92/48
s 7
f 14/13/49 20/14/50 23/15/51 24/16/52
s 8
f 19/19/53 13/20/54 21/21/55 22/22/56
f 22/22/56 21/21/55 15/23/57 17/24/58
s 6
f 17/155/59 18/156/60 23/152/42 22/151/41
s 7
f 24/16/52 23/15/51 18/17/61 16/18/62
s 5
f 21/148/36 24/147/35 16/149/63 15/150/64
s off
f 25/157/65 26/158/66 28/159/67 27/160/68
f 27/93/69 28/94/70 30/95/71 29/96/72
f 29/161/73 30/162/74 32/163/75 31/164/76
f 31/97/77 32/98/78 26/99/79 25/100/80
f 26/25/81 32/26/82 30/27/83 28/28/84
f 31/29/85 25/30/86 27/31/87 29/32/88
s 9
f 33/165/89 34/166/90 44/167/91 41/168/92
s off
f 35/101/93 36/102/94 38/103/95 37/104/96
s 10
f 42/171/97 43/172/98 40/173/99 39/174/100
s off
f 39/105/101 40/106/102 34/107/103 33/108/104
s 11
f 34/33/105 40/34/106 43/35/107 44/36/108
s 12
f 39/39/109 33/40/110 41/41/111 42/42/112
f 42/42/112 41/41/111 35/43/113 37/44/114
s 10
f 37/175/115 38/176/116 43/172/98 42/171/97
s 11
f 44/36/108 43/35/107 38/37/117 36/38/118
s 9
f 41/168/92 44/167/91 36/169/119 35/170/120
s 13
f 45/177/121 46/178/122 56/179/123 53/180/124
s off
f 47/109/125 48/110/126 50/111/127 49/112/128
s 14
f 54/183/129 55/184/130 52/185/131 51/186/132
s off
f 51/113/133 52/114/134 46/115/135 45/116/136
s 15
f 46/45/137 52/46/138 55/47/139 56/48/140
s 16
f 51/51/141 45/52/142 53/53/143 54/54/144
f 54/54/144 53/53/143 47/55/145 49/56/146
s 14
f 49/187/147 50/188/148 55/184/130 54/183/129
s 15
f 56/48/140 55/47/139 50/49/149 48/50/150
s 13
f 53/180/124 56/179/123 48/181/151 47/182/152
s off
f 57/189/153 58/190/154 60/191/155 59/192/156
f 59/117/157 60/118/158 62/119/159 61/120/160
f 61/193/161 62/194/162 64/195/163 63/196/164
f 63/121/165 64/122/166 58/123/167 57/124/168
f 58/57/169 64/58/170 62/59/171 60/60/172
f 63/61/173 57/62/174 59/63/175 61/64/176
s 17
f 65/197/177 66/198/178 76/199/179 73/200/180
s off
f 67/125/181 68/126/182 70/127/183 69/128/184
s 18
f 74/203/185 75/204/186 72/205/187 71/206/188
s off
f 71/129/189 72/130/190 66/131/191 65/132/192
s 19
f 66/65/193 72/66/194 75/67/195 76/68/196
s 20
f 71/71/197 65/72/198 73/73/199 74/74/200
f 74/74/200 73/73/199 67/75/201 69/76/202
s 18
f 69/207/203 70/208/204 75/204/186 74/203/185
s 19
f 76/68/196 75/67/195 70/69/205 68/70/206
s 17
f 73/200/180 76/199/179 68/201/207 67/202/208
