# This file uses centimeters as units for non-parametric coordinates.

mtllib hedgehog.mtl
g default
v 0.790305 0.000000 -0.768867
v 0.299230 0.000000 -1.204793
v -0.307773 0.000000 -1.204793
v -0.798848 0.000000 -0.768867
v -0.986422 0.000000 -0.063525
v -0.798848 0.000000 0.641818
v -0.307773 0.000000 1.077743
v 0.299230 0.000000 1.077743
v 0.790305 0.000000 0.641817
v 0.977879 0.000000 -0.063525
v 0.751416 0.269018 -0.734346
v 0.284375 0.269018 -1.148935
v -0.292918 0.269018 -1.148935
v -0.759959 0.269018 -0.734345
v -0.938352 0.269018 -0.063525
v -0.759959 0.269018 0.607296
v -0.292918 0.269018 1.021886
v 0.284375 0.269018 1.021885
v 0.751416 0.269018 0.607296
v 0.929809 0.269018 -0.063525
v 0.638555 0.511702 -0.634159
v 0.241266 0.511702 -0.986830
v -0.249809 0.511702 -0.986830
v -0.647098 0.511702 -0.634159
v -0.798848 0.511702 -0.063525
v -0.647098 0.511702 0.507109
v -0.249809 0.511702 0.859780
v 0.241266 0.511702 0.859780
v 0.638555 0.511702 0.507109
v 0.790305 0.511702 -0.063525
v 0.462769 0.704297 -0.478115
v 0.174122 0.704297 -0.734345
v -0.182665 0.704297 -0.734345
v -0.471312 0.704297 -0.478115
v -0.581565 0.704297 -0.063525
v -0.471312 0.704297 0.351065
v -0.182665 0.704297 0.607296
v 0.174122 0.704297 0.607296
v 0.462769 0.704297 0.351065
v 0.573022 0.704297 -0.063525
v 0.241266 0.827951 -0.281488
v 0.089516 0.827951 -0.416196
v -0.098059 0.827951 -0.416196
v -0.249809 0.827951 -0.281488
v -0.307773 0.827951 -0.063525
v -0.249809 0.827951 0.154438
v -0.098059 0.827951 0.289146
v 0.089516 0.827951 0.289146
v 0.241266 0.827951 0.154438
v 0.299230 0.827951 -0.063525
v -0.004271 0.870559 -0.063525
v 0.299230 0.000000 -1.433546
v -0.307773 0.000000 -1.433546
v -0.292919 0.357652 -1.410255
v 0.284375 0.357652 -1.410255
v -0.249809 0.500000 -1.399048
v 0.241266 0.500000 -1.399049
v 0.321959 0.678701 0.331054
v 0.251602 0.567230 0.515727
v 0.403863 0.405594 0.562313
v 0.568323 0.417168 0.406432
v 0.517704 0.585958 0.263506
v 0.788756 1.009786 0.848125
v -0.278728 0.678701 0.368671
v -0.476104 0.567230 0.358824
v -0.473359 0.405594 0.518029
v -0.274286 0.417168 0.626270
v -0.153998 0.585958 0.533961
v -0.626243 1.009786 0.972404
v 0.471806 0.678701 -0.251857
v 0.625699 0.567230 -0.127876
v 0.717057 0.405594 -0.258289
v 0.619626 0.417168 -0.462870
v 0.468053 0.585958 -0.458895
v 1.107818 1.009786 -0.536023
v 0.675521 0.485407 0.094642
v 0.634266 0.420591 0.308129
v 0.716551 0.210842 0.334865
v 0.808660 0.146026 0.137901
v 0.783302 0.315717 -0.010565
v 1.380195 0.600467 0.386316
v -0.461267 0.485407 -0.591056
v -0.302407 0.420591 -0.739522
v -0.353261 0.210842 -0.809518
v -0.543551 0.146026 -0.704311
v -0.610303 0.315717 -0.569294
v -0.859919 0.600467 -1.241223
v -0.647203 0.485407 0.208088
v -0.739312 0.420591 0.011124
v -0.821597 0.210842 0.037860
v -0.780342 0.146026 0.251347
v -0.672561 0.315717 0.356554
v -1.388738 0.600467 0.386316
v 0.055371 0.485407 0.631872
v -0.160416 0.420591 0.658608
v -0.160416 0.210842 0.745127
v 0.055371 0.146026 0.771863
v 0.188734 0.315717 0.701868
v -0.004271 0.600467 1.392190
v -0.036270 0.678701 -0.574500
v 0.129198 0.567230 -0.682548
v 0.033399 0.405594 -0.809734
v -0.191276 0.417168 -0.780291
v -0.234334 0.585958 -0.634908
v -0.109990 1.009786 -1.267195
v 0.356221 0.485407 -0.661170
v 0.546512 0.420591 -0.555963
v 0.597366 0.210842 -0.625958
v 0.438506 0.146026 -0.774425
v 0.289470 0.315717 -0.796186
v 0.851376 0.600467 -1.241223
v -0.500125 0.678701 -0.190992
v -0.551753 0.567230 -0.381751
v -0.702318 0.405594 -0.329943
v -0.743744 0.417168 -0.107166
v -0.618782 0.585958 -0.021289
v -1.181698 1.009786 -0.334935
v 0.000000 0.000000 0.000000
vt 0.393023 0.372614
vt 0.349222 0.354409
vt 0.361359 0.587900
vt 0.700524 0.942391
vt 0.382108 0.563589
vt 0.431611 0.563589
vt 0.430400 0.592818
vt 0.383319 0.592818
vt 0.307770 0.368704
vt 0.284501 0.410038
vt 0.671061 0.787836
vt 0.452869 0.594068
vt 0.288303 0.462622
vt 0.728417 0.765350
vt 0.317722 0.506372
vt 0.789205 0.775001
vt 0.361523 0.524576
vt 0.829746 0.812129
vt 0.402975 0.510281
vt 0.839194 0.861692
vt 0.426244 0.468948
vt 0.815264 0.911269
vt 0.422442 0.416363
vt 0.762032 0.942457
vt 0.355879 0.617609
vt 0.705928 0.920671
vt 0.426884 0.604463
vt 0.386835 0.604463
vt 0.684061 0.806050
vt 0.426884 0.638095
vt 0.729642 0.787848
vt 0.777056 0.794079
vt 0.809253 0.821882
vt 0.816235 0.860380
vt 0.796812 0.898022
vt 0.754906 0.921064
vt 0.686872 0.881313
vt 0.714077 0.898854
vt 0.681282 0.849457
vt 0.699872 0.823297
vt 0.731396 0.810327
vt 0.764175 0.813806
vt 0.786823 0.832321
vt 0.791583 0.858927
vt 0.777473 0.884395
vt 0.748223 0.899514
vt 0.711391 0.867842
vt 0.724642 0.877010
vt 0.708965 0.853125
vt 0.717816 0.839806
vt 0.733879 0.832862
vt 0.750789 0.834305
vt 0.762629 0.843578
vt 0.765127 0.857238
vt 0.757486 0.870183
vt 0.742235 0.877659
vt 0.737130 0.855461
vt 0.900156 0.723222
vt 0.905874 0.740820
vt 0.959181 0.667449
vt 0.924378 0.740820
vt 0.930096 0.723222
vt 0.915126 0.712346
vt 0.900156 0.723222
vt 0.905874 0.740820
vt 0.959181 0.667449
vt 0.924378 0.740821
vt 0.930096 0.723222
vt 0.915126 0.712346
vt 0.900156 0.723222
vt 0.905874 0.740820
vt 0.959182 0.667449
vt 0.924378 0.740821
vt 0.930096 0.723222
vt 0.915126 0.712346
vt 0.900156 0.723222
vt 0.905874 0.740820
vt 0.959182 0.667449
vt 0.924378 0.740820
vt 0.930096 0.723222
vt 0.915126 0.712346
vt 0.900156 0.723222
vt 0.905874 0.740820
vt 0.959181 0.667449
vt 0.924378 0.740820
vt 0.930096 0.723222
vt 0.915126 0.712346
vt 0.900156 0.723222
vt 0.905874 0.740820
vt 0.959181 0.667449
vt 0.924378 0.740820
vt 0.930096 0.723222
vt 0.915126 0.712346
vt 0.900156 0.723222
vt 0.905874 0.740820
vt 0.959182 0.667449
vt 0.924378 0.740821
vt 0.930096 0.723222
vt 0.915126 0.712346
vt 0.900156 0.723222
vt 0.905874 0.740821
vt 0.959182 0.667449
vt 0.924378 0.740820
vt 0.930096 0.723222
vt 0.915126 0.712346
vt 0.900156 0.723222
vt 0.905874 0.740820
vt 0.959182 0.667449
vt 0.924378 0.740821
vt 0.930096 0.723222
vt 0.915126 0.712346
vt 0.900156 0.723222
vt 0.905874 0.740820
vt 0.959182 0.667449
vt 0.924378 0.740820
vt 0.930096 0.723222
vt 0.915126 0.712346
vt 0.357160 0.443730
vt 0.986409 0.751247
vt 0.915126 0.803038
vt 0.843843 0.751247
vt 0.871071 0.667449
vt 0.986409 0.751247
vt 0.915126 0.803038
vt 0.843843 0.751247
vt 0.871071 0.667449
vt 0.986409 0.751248
vt 0.915126 0.803038
vt 0.843843 0.751247
vt 0.871071 0.667449
vt 0.986409 0.751248
vt 0.915126 0.803038
vt 0.843843 0.751247
vt 0.871071 0.667449
vt 0.986409 0.751247
vt 0.915126 0.803038
vt 0.843843 0.751247
vt 0.871071 0.667449
vt 0.986409 0.751247
vt 0.915126 0.803038
vt 0.843843 0.751247
vt 0.871071 0.667449
vt 0.986409 0.751247
vt 0.915126 0.803038
vt 0.843843 0.751247
vt 0.871071 0.667449
vt 0.986409 0.751248
vt 0.915126 0.803038
vt 0.843843 0.751247
vt 0.871071 0.667449
vt 0.986409 0.751247
vt 0.915126 0.803038
vt 0.843843 0.751247
vt 0.871071 0.667449
vt 0.986409 0.751247
vt 0.915126 0.803038
vt 0.843843 0.751247
vt 0.871071 0.667449
vt 0.769356 0.964169
vt 0.696827 0.964169
vt 0.832785 0.924856
vt 0.861188 0.863339
vt 0.848583 0.802474
vt 0.800432 0.755942
vt 0.727351 0.742467
vt 0.659725 0.768877
vt 0.642153 0.941142
vt 0.431611 0.544933
vt 0.633295 0.826832
vt 0.654386 0.843129
vt 0.651324 0.919832
vt 0.665134 0.897037
vt 0.617042 0.810263
vt 0.363557 0.565568
vt 0.386835 0.638095
vt 0.457840 0.617609
vt 0.360850 0.594068
vt 0.452360 0.587900
vt 0.450162 0.565568
vt 0.382108 0.544933
vn 0.651965 0.188497 -0.734446
vn 0.651965 0.188497 -0.734446
vn 0.651965 0.188497 -0.734446
vn 0.651965 0.188497 -0.734446
vn -0.000000 0.064985 -0.997886
vn -0.000000 0.064985 -0.997886
vn -0.000000 0.064985 -0.997886
vn -0.000000 0.064985 -0.997886
vn -0.651965 0.188497 -0.734446
vn -0.651965 0.188497 -0.734446
vn -0.651965 0.188497 -0.734446
vn -0.651965 0.188497 -0.734446
vn -0.952316 0.170166 -0.253253
vn -0.952316 0.170166 -0.253253
vn -0.952316 0.170166 -0.253253
vn -0.952316 0.170166 -0.253253
vn -0.952317 0.170166 0.253253
vn -0.952316 0.170166 0.253253
vn -0.952317 0.170166 0.253253
vn -0.952317 0.170166 0.253253
vn -0.651965 0.188497 0.734446
vn -0.651965 0.188497 0.734446
vn -0.651965 0.188497 0.734446
vn -0.651965 0.188497 0.734446
vn 0.000000 0.203300 0.979117
vn 0.000000 0.203300 0.979117
vn 0.000000 0.203300 0.979117
vn 0.000000 0.203300 0.979117
vn 0.651965 0.188497 0.734446
vn 0.651965 0.188497 0.734446
vn 0.651965 0.188497 0.734446
vn 0.651965 0.188497 0.734446
vn 0.952316 0.170166 0.253253
vn 0.952316 0.170166 0.253253
vn 0.952316 0.170166 0.253253
vn 0.952316 0.170166 0.253253
vn 0.952316 0.170166 -0.253253
vn 0.952316 0.170166 -0.253253
vn 0.952316 0.170166 -0.253253
vn 0.952316 0.170166 -0.253253
vn 0.564861 0.525382 -0.636323
vn 0.564861 0.525382 -0.636323
vn 0.564861 0.525382 -0.636323
vn 0.564861 0.525382 -0.636323
vn -0.000000 0.078482 -0.996916
vn -0.000000 0.078482 -0.996916
vn -0.000000 0.078482 -0.996916
vn -0.000000 0.078482 -0.996916
vn -0.564861 0.525382 -0.636322
vn -0.564861 0.525382 -0.636322
vn -0.564861 0.525382 -0.636322
vn -0.564861 0.525382 -0.636322
vn -0.844804 0.485626 -0.224662
vn -0.844804 0.485626 -0.224662
vn -0.844804 0.485626 -0.224662
vn -0.844804 0.485626 -0.224662
vn -0.844805 0.485626 0.224662
vn -0.844804 0.485626 0.224662
vn -0.844805 0.485626 0.224662
vn -0.844804 0.485626 0.224662
vn -0.564861 0.525382 0.636323
vn -0.564861 0.525382 0.636323
vn -0.564861 0.525382 0.636323
vn -0.564861 0.525382 0.636323
vn 0.000000 0.555449 0.831551
vn 0.000000 0.555449 0.831551
vn 0.000000 0.555449 0.831551
vn 0.000000 0.555449 0.831551
vn 0.564861 0.525382 0.636322
vn 0.564861 0.525382 0.636322
vn 0.564861 0.525382 0.636323
vn 0.564861 0.525382 0.636323
vn 0.844804 0.485626 0.224662
vn 0.844804 0.485626 0.224662
vn 0.844804 0.485626 0.224662
vn 0.844804 0.485626 0.224662
vn 0.844805 0.485626 -0.224662
vn 0.844805 0.485626 -0.224662
vn 0.844805 0.485626 -0.224662
vn 0.844805 0.485626 -0.224662
vn 0.422529 0.771302 -0.475985
vn 0.422529 0.771302 -0.475985
vn 0.422530 0.771302 -0.475985
vn 0.422530 0.771303 -0.475985
vn -0.000000 0.795089 -0.606493
vn -0.000000 0.795088 -0.606493
vn -0.000000 0.795089 -0.606493
vn -0.000000 0.795089 -0.606493
vn -0.422530 0.771302 -0.475985
vn -0.422530 0.771303 -0.475985
vn -0.422530 0.771302 -0.475985
vn -0.422530 0.771302 -0.475985
vn -0.653229 0.736963 -0.173715
vn -0.653229 0.736963 -0.173715
vn -0.653229 0.736963 -0.173715
vn -0.653229 0.736963 -0.173715
vn -0.653229 0.736963 0.173715
vn -0.653229 0.736963 0.173715
vn -0.653229 0.736963 0.173715
vn -0.653229 0.736963 0.173715
vn -0.422529 0.771303 0.475985
vn -0.422529 0.771303 0.475985
vn -0.422529 0.771302 0.475985
vn -0.422529 0.771303 0.475985
vn 0.000000 0.795088 0.606493
vn 0.000000 0.795089 0.606493
vn 0.000000 0.795089 0.606493
vn 0.000000 0.795089 0.606493
vn 0.422530 0.771302 0.475985
vn 0.422530 0.771302 0.475985
vn 0.422530 0.771302 0.475985
vn 0.422530 0.771302 0.475985
vn 0.653229 0.736963 0.173715
vn 0.653229 0.736963 0.173715
vn 0.653229 0.736963 0.173715
vn 0.653229 0.736963 0.173715
vn 0.653229 0.736963 -0.173715
vn 0.653229 0.736963 -0.173715
vn 0.653229 0.736963 -0.173715
vn 0.653229 0.736963 -0.173715
vn 0.257306 0.921833 -0.289859
vn 0.257306 0.921833 -0.289859
vn 0.257306 0.921833 -0.289859
vn 0.257306 0.921833 -0.289859
vn -0.000000 0.932075 -0.362266
vn -0.000000 0.932075 -0.362266
vn -0.000000 0.932075 -0.362266
vn -0.000000 0.932075 -0.362266
vn -0.257307 0.921833 -0.289859
vn -0.257307 0.921833 -0.289859
vn -0.257306 0.921833 -0.289859
vn -0.257307 0.921833 -0.289859
vn -0.409159 0.905953 -0.108809
vn -0.409159 0.905953 -0.108809
vn -0.409159 0.905953 -0.108809
vn -0.409159 0.905953 -0.108809
vn -0.409159 0.905953 0.108809
vn -0.409159 0.905953 0.108809
vn -0.409159 0.905953 0.108809
vn -0.409159 0.905953 0.108809
vn -0.257306 0.921833 0.289859
vn -0.257306 0.921833 0.289859
vn -0.257306 0.921833 0.289859
vn -0.257306 0.921833 0.289859
vn 0.000000 0.932075 0.362266
vn 0.000000 0.932075 0.362266
vn 0.000000 0.932075 0.362266
vn 0.000000 0.932075 0.362266
vn 0.257306 0.921833 0.289859
vn 0.257306 0.921833 0.289859
vn 0.257306 0.921833 0.289859
vn 0.257306 0.921833 0.289859
vn 0.409159 0.905953 0.108809
vn 0.409159 0.905953 0.108809
vn 0.409159 0.905953 0.108809
vn 0.409159 0.905953 0.108809
vn 0.409158 0.905953 -0.108809
vn 0.409159 0.905953 -0.108809
vn 0.409158 0.905953 -0.108809
vn 0.409158 0.905953 -0.108809
vn 0.086033 0.991567 -0.096918
vn 0.086033 0.991567 -0.096918
vn 0.086033 0.991567 -0.096918
vn 0.000000 0.992781 -0.119943
vn 0.000000 0.992781 -0.119943
vn 0.000000 0.992781 -0.119943
vn -0.086033 0.991567 -0.096918
vn -0.086033 0.991567 -0.096918
vn -0.086033 0.991567 -0.096918
vn -0.138930 0.989613 -0.036947
vn -0.138930 0.989613 -0.036947
vn -0.138930 0.989613 -0.036947
vn -0.138930 0.989613 0.036947
vn -0.138930 0.989613 0.036947
vn -0.138930 0.989613 0.036947
vn -0.086033 0.991567 0.096918
vn -0.086033 0.991567 0.096918
vn -0.086033 0.991567 0.096918
vn 0.000000 0.992781 0.119943
vn 0.000000 0.992781 0.119943
vn 0.000000 0.992781 0.119943
vn 0.086033 0.991567 0.096917
vn 0.086033 0.991567 0.096917
vn 0.086033 0.991567 0.096917
vn 0.138930 0.989613 0.036947
vn 0.138930 0.989613 0.036947
vn 0.138930 0.989613 0.036947
vn 0.138930 0.989613 -0.036946
vn 0.138930 0.989613 -0.036946
vn 0.138930 0.989613 -0.036946
vn -0.000000 -1.000000 -0.000000
vn -0.000000 -1.000000 -0.000000
vn -0.000000 -1.000000 -0.000000
vn -0.000000 -1.000000 -0.000000
vn -0.998893 0.046298 0.008374
vn -0.991904 0.125978 0.015970
vn -0.990576 0.135913 0.016916
vn -0.998893 0.046298 0.008374
vn 0.991905 0.125978 0.015970
vn 0.998893 0.046298 0.008373
vn 0.998893 0.046298 0.008373
vn 0.990576 0.135913 0.016915
vn -0.977788 0.208244 0.023786
vn -0.977788 0.208244 0.023786
vn 0.000000 0.999597 -0.028376
vn 0.000000 0.999597 -0.028376
vn 0.000000 0.999597 -0.028376
vn 0.000000 0.999597 -0.028376
vn 0.977788 0.208244 0.023786
vn 0.977788 0.208244 0.023786
vn -0.686218 0.708193 0.166034
vn -0.686218 0.708193 0.166034
vn -0.686218 0.708193 0.166034
vn -0.429502 -0.147823 0.890885
vn -0.429502 -0.147823 0.890885
vn -0.429502 -0.147823 0.890885
vn 0.563217 -0.618171 0.548317
vn 0.563217 -0.618171 0.548317
vn 0.563218 -0.618171 0.548317
vn 0.920036 -0.052846 -0.388253
vn 0.920036 -0.052846 -0.388253
vn 0.920036 -0.052846 -0.388253
vn 0.147842 0.766891 -0.624516
vn 0.147842 0.766891 -0.624516
vn 0.147842 0.766891 -0.624516
vn -0.369962 0.708193 -0.601324
vn -0.369962 0.708193 -0.601324
vn -0.369962 0.708193 -0.601324
vn -0.980006 -0.147822 -0.133182
vn -0.980006 -0.147822 -0.133182
vn -0.980006 -0.147822 -0.133182
vn -0.347436 -0.618170 0.705091
vn -0.347436 -0.618170 0.705091
vn -0.347436 -0.618170 0.705091
vn 0.653558 -0.052846 0.755030
vn 0.653558 -0.052846 0.755030
vn 0.653558 -0.052846 0.755030
vn 0.639636 0.766891 -0.052380
vn 0.639636 0.766891 -0.052380
vn 0.639636 0.766891 -0.052380
vn -0.054145 0.708193 0.703940
vn -0.054145 0.708193 0.703940
vn -0.054145 0.708193 0.703940
vn 0.714559 -0.147823 0.683779
vn 0.714559 -0.147823 0.683779
vn 0.714559 -0.147823 0.683779
vn 0.695524 -0.618170 -0.366213
vn 0.695524 -0.618170 -0.366213
vn 0.695524 -0.618170 -0.366213
vn -0.084944 -0.052846 -0.994983
vn -0.084944 -0.052846 -0.994983
vn -0.084944 -0.052846 -0.994983
vn -0.548264 0.766892 -0.333592
vn -0.548264 0.766892 -0.333592
vn -0.548264 0.766892 -0.333592
vn -0.251129 0.938631 0.236444
vn -0.251129 0.938631 0.236444
vn -0.251129 0.938631 0.236444
vn -0.122526 0.078047 0.989392
vn -0.122526 0.078047 0.989392
vn -0.122526 0.078047 0.989392
vn 0.424087 -0.782537 0.455835
vn 0.424087 -0.782537 0.455835
vn 0.424087 -0.782537 0.455835
vn 0.633310 -0.453824 -0.626868
vn 0.633310 -0.453824 -0.626868
vn 0.633310 -0.453824 -0.626868
vn 0.216003 0.609918 -0.762459
vn 0.216003 0.609918 -0.762459
vn 0.216003 0.609918 -0.762459
vn 0.342146 0.938631 -0.043677
vn 0.342146 0.938631 -0.043677
vn 0.342146 0.938631 -0.043677
vn 0.680676 0.078047 -0.728416
vn 0.680676 0.078047 -0.728416
vn 0.680676 0.078047 -0.728416
vn -0.075161 -0.782537 -0.618051
vn -0.075161 -0.782537 -0.618051
vn -0.075161 -0.782537 -0.618051
vn -0.880822 -0.453824 0.134897
vn -0.880822 -0.453824 0.134897
vn -0.880822 -0.453824 0.134897
vn -0.622912 0.609917 0.489879
vn -0.622912 0.609917 0.489879
vn -0.622912 0.609917 0.489879
vn 0.064189 0.938631 -0.338897
vn 0.064189 0.938631 -0.338897
vn 0.064189 0.938631 -0.338897
vn -0.482424 0.078047 -0.872454
vn -0.482424 0.078047 -0.872454
vn -0.482424 0.078047 -0.872454
vn -0.611027 -0.782537 -0.119507
vn -0.611027 -0.782537 -0.119507
vn -0.611027 -0.782537 -0.119507
vn -0.143895 -0.453824 0.879397
vn -0.143895 -0.453823 0.879397
vn -0.143895 -0.453823 0.879397
vn 0.273412 0.609917 0.743806
vn 0.273412 0.609917 0.743806
vn 0.273412 0.609917 0.743806
vn -0.302475 0.938631 -0.165773
vn -0.302475 0.938631 -0.165773
vn -0.302475 0.938631 -0.165773
vn -0.978830 0.078047 0.189210
vn -0.978830 0.078047 0.189210
vn -0.978830 0.078047 0.189210
vn -0.302475 -0.782537 0.544192
vn -0.302475 -0.782537 0.544192
vn -0.302475 -0.782537 0.544192
vn 0.791890 -0.453823 0.408601
vn 0.791890 -0.453823 0.408601
vn 0.791890 -0.453823 0.408601
vn 0.791890 0.609917 -0.030181
vn 0.791890 0.609917 -0.030181
vn 0.791890 0.609917 -0.030181
vn 0.652755 0.708193 0.269024
vn 0.652755 0.708193 0.269024
vn 0.652755 0.708193 0.269024
vn 0.871124 -0.147822 -0.468286
vn 0.871124 -0.147822 -0.468286
vn 0.871124 -0.147822 -0.468287
vn -0.133361 -0.618171 -0.774648
vn -0.133361 -0.618171 -0.774648
vn -0.133361 -0.618171 -0.774648
vn -0.972534 -0.052846 -0.226681
vn -0.972534 -0.052846 -0.226681
vn -0.972534 -0.052846 -0.226681
vn -0.486688 0.766892 0.418345
vn -0.486688 0.766892 0.418345
vn -0.486688 0.766892 0.418345
vn 0.147269 0.938631 0.311903
vn 0.147269 0.938631 0.311903
vn 0.147269 0.938631 0.311903
vn 0.903105 0.078047 0.422269
vn 0.903105 0.078047 0.422269
vn 0.903105 0.078047 0.422269
vn 0.564575 -0.782537 -0.262470
vn 0.564575 -0.782537 -0.262470
vn 0.564575 -0.782537 -0.262470
vn -0.400483 -0.453824 -0.796026
vn -0.400483 -0.453824 -0.796026
vn -0.400483 -0.453823 -0.796026
vn -0.658393 0.609917 -0.441044
vn -0.658393 0.609917 -0.441044
vn -0.658393 0.609917 -0.441044
vn 0.457569 0.708193 -0.537674
vn 0.457569 0.708193 -0.537674
vn 0.457569 0.708193 -0.537674
vn -0.176175 -0.147822 -0.973196
vn -0.176175 -0.147822 -0.973196
vn -0.176175 -0.147822 -0.973196
vn -0.777945 -0.618171 -0.112546
vn -0.777945 -0.618170 -0.112546
vn -0.777945 -0.618170 -0.112546
vn -0.516116 -0.052846 0.854887
vn -0.516116 -0.052846 0.854887
vn -0.516116 -0.052846 0.854887
vn 0.247474 0.766891 0.592144
vn 0.247474 0.766892 0.592144
vn 0.247474 0.766891 0.592144
vn 0.000000 -1.000000 -0.000000
vn 0.000000 -1.000000 -0.000000
vn 0.000000 -1.000000 0.000000
vn 0.000000 -1.000000 -0.000000
vn -0.000000 -1.000000 -0.000000
vn -0.000000 -1.000000 -0.000000
vn -0.000000 -1.000000 -0.000000
vn -0.000000 -1.000000 0.000000
vn -0.000000 -1.000000 0.000000
vn 0.000000 -1.000000 0.000000
vn 0.000000 -1.000000 0.000000
vn -0.503607 -0.641258 -0.578937
vn -0.503607 -0.641258 -0.578937
vn -0.503607 -0.641258 -0.578937
vn -0.503607 -0.641258 -0.578937
vn -0.503607 -0.641258 -0.578937
vn -0.879197 -0.381323 -0.285668
vn -0.879197 -0.381323 -0.285668
vn -0.879197 -0.381323 -0.285668
vn -0.879197 -0.381323 -0.285668
vn -0.879197 -0.381323 -0.285668
vn -0.706225 -0.641258 0.300057
vn -0.706225 -0.641258 0.300057
vn -0.706225 -0.641258 0.300057
vn -0.706225 -0.641258 0.300057
vn -0.706225 -0.641258 0.300057
vn -0.543373 -0.381323 0.747889
vn -0.543373 -0.381323 0.747889
vn -0.543373 -0.381323 0.747889
vn -0.543373 -0.381323 0.747889
vn -0.543373 -0.381323 0.747889
vn 0.067136 -0.641258 0.764383
vn 0.067136 -0.641258 0.764383
vn 0.067136 -0.641258 0.764383
vn 0.067136 -0.641258 0.764383
vn 0.067136 -0.641258 0.764383
vn 0.543373 -0.381323 0.747889
vn 0.543373 -0.381323 0.747889
vn 0.543373 -0.381323 0.747889
vn 0.543373 -0.381323 0.747889
vn 0.543373 -0.381323 0.747889
vn 0.747717 -0.641258 0.172358
vn 0.747717 -0.641258 0.172358
vn 0.747717 -0.641258 0.172358
vn 0.747717 -0.641258 0.172358
vn 0.747717 -0.641258 0.172358
vn 0.879197 -0.381323 -0.285668
vn 0.879197 -0.381323 -0.285668
vn 0.879197 -0.381323 -0.285668
vn 0.879197 -0.381323 -0.285668
vn 0.879197 -0.381323 -0.285668
vn 0.394979 -0.641258 -0.657860
vn 0.394979 -0.641258 -0.657860
vn 0.394979 -0.641258 -0.657860
vn 0.394979 -0.641258 -0.657860
vn 0.394979 -0.641258 -0.657860
vn 0.000000 -0.381323 -0.924442
vn 0.000000 -0.381323 -0.924442
vn 0.000000 -0.381323 -0.924442
vn 0.000000 -0.381323 -0.924442
vn 0.000000 -0.381323 -0.924442
s off
g hedgehog
usemtl initialShadingGroup
f 1/160/1 2/167/2 12/171/3 11/4/4
f 52/5/5 53/6/6 54/7/7 55/8/8
f 3/173/9 4/166/10 14/11/11 13/169/12
f 4/166/13 5/165/14 15/14/15 14/11/16
f 5/165/17 6/164/18 16/16/19 15/14/20
f 6/164/21 7/163/22 17/18/23 16/16/24
f 7/163/25 8/162/26 18/20/27 17/18/28
f 8/162/29 9/161/30 19/22/31 18/20/32
f 9/161/33 10/159/34 20/24/35 19/22/36
f 10/159/37 1/160/38 11/4/39 20/24/40
f 11/4/41 12/171/42 22/172/43 21/26/44
f 55/8/45 54/7/46 56/27/47 57/28/48
f 13/169/49 14/11/50 24/29/51 23/170/52
f 14/11/53 15/14/54 25/31/55 24/29/56
f 15/14/57 16/16/58 26/32/59 25/31/60
f 16/16/61 17/18/62 27/33/63 26/32/64
f 17/18/65 18/20/66 28/34/67 27/33/68
f 18/20/69 19/22/70 29/35/71 28/34/72
f 19/22/73 20/24/74 30/36/75 29/35/76
f 20/24/77 11/4/78 21/26/79 30/36/80
f 21/26/81 22/172/82 32/37/83 31/38/84
f 22/172/85 23/170/86 33/39/87 32/37/88
f 23/170/89 24/29/90 34/40/91 33/39/92
f 24/29/93 25/31/94 35/41/95 34/40/96
f 25/31/97 26/32/98 36/42/99 35/41/100
f 26/32/101 27/33/102 37/43/103 36/42/104
f 27/33/105 28/34/106 38/44/107 37/43/108
f 28/34/109 29/35/110 39/45/111 38/44/112
f 29/35/113 30/36/114 40/46/115 39/45/116
f 30/36/117 21/26/118 31/38/119 40/46/120
f 31/38/121 32/37/122 42/47/123 41/48/124
f 32/37/125 33/39/126 43/49/127 42/47/128
f 33/39/129 34/40/130 44/50/131 43/49/132
f 34/40/133 35/41/134 45/51/135 44/50/136
f 35/41/137 36/42/138 46/52/139 45/51/140
f 36/42/141 37/43/142 47/53/143 46/52/144
f 37/43/145 38/44/146 48/54/147 47/53/148
f 38/44/149 39/45/150 49/55/151 48/54/152
f 39/45/153 40/46/154 50/56/155 49/55/156
f 40/46/157 31/38/158 41/48/159 50/56/160
f 41/48/161 42/47/162 51/57/163
f 42/47/164 43/49/165 51/57/166
f 43/49/167 44/50/168 51/57/169
f 44/50/170 45/51/171 51/57/172
f 45/51/173 46/52/174 51/57/175
f 46/52/176 47/53/177 51/57/178
f 47/53/179 48/54/180 51/57/181
f 48/54/182 49/55/183 51/57/184
f 49/55/185 50/56/186 51/57/187
f 50/56/188 41/48/189 51/57/190
f 2/180/191 3/168/192 53/6/193 52/5/194
s 1
f 3/179/195 13/178/196 54/7/197 53/6/198
s 2
f 12/3/199 2/174/200 52/5/201 55/8/202
s 1
f 13/12/196 23/176/203 56/27/204 54/7/197
s off
f 23/30/205 22/175/206 57/28/207 56/27/208
s 2
f 22/25/209 12/177/199 55/8/202 57/28/210
s off
f 58/58/211 59/59/212 63/157/213
f 59/59/214 60/61/215 63/156/216
f 60/61/217 61/62/218 63/155/219
f 61/62/220 62/63/221 63/60/222
f 62/63/223 58/58/224 63/158/225
f 64/64/226 65/65/227 69/153/228
f 65/65/229 66/67/230 69/152/231
f 66/67/232 67/68/233 69/151/234
f 67/68/235 68/69/236 69/66/237
f 68/69/238 64/64/239 69/154/240
f 70/70/241 71/71/242 75/149/243
f 71/71/244 72/73/245 75/148/246
f 72/73/247 73/74/248 75/147/249
f 73/74/250 74/75/251 75/72/252
f 74/75/253 70/70/254 75/150/255
f 76/76/256 77/77/257 81/145/258
f 77/77/259 78/79/260 81/144/261
f 78/79/262 79/80/263 81/143/264
f 79/80/265 80/81/266 81/78/267
f 80/81/268 76/76/269 81/146/270
f 82/82/271 83/83/272 87/141/273
f 83/83/274 84/85/275 87/140/276
f 84/85/277 85/86/278 87/139/279
f 85/86/280 86/87/281 87/84/282
f 86/87/283 82/82/284 87/142/285
f 88/88/286 89/89/287 93/137/288
f 89/89/289 90/91/290 93/136/291
f 90/91/292 91/92/293 93/135/294
f 91/92/295 92/93/296 93/90/297
f 92/93/298 88/88/299 93/138/300
f 94/94/301 95/95/302 99/133/303
f 95/95/304 96/97/305 99/132/306
f 96/97/307 97/98/308 99/131/309
f 97/98/310 98/99/311 99/96/312
f 98/99/313 94/94/314 99/134/315
f 100/100/316 101/101/317 105/129/318
f 101/101/319 102/103/320 105/128/321
f 102/103/322 103/104/323 105/127/324
f 103/104/325 104/105/326 105/102/327
f 104/105/328 100/100/329 105/130/330
f 106/106/331 107/107/332 111/125/333
f 107/107/334 108/109/335 111/124/336
f 108/109/337 109/110/338 111/123/339
f 109/110/340 110/111/341 111/108/342
f 110/111/343 106/106/344 111/126/345
f 112/112/346 113/113/347 117/121/348
f 113/113/349 114/115/350 117/120/351
f 114/115/352 115/116/353 117/119/354
f 115/116/355 116/117/356 117/114/357
f 116/117/358 112/112/359 117/122/360
s 3
f 2/2/361 1/1/362 118/118/363
f 10/23/364 118/118/363 1/1/362
f 2/2/361 118/118/363 3/9/365
f 3/9/365 118/118/363 4/10/366
f 4/10/366 118/118/363 5/13/367
f 5/13/367 118/118/363 6/15/368
f 6/15/368 118/118/363 7/17/369
f 7/17/369 118/118/363 8/19/370
f 8/19/370 118/118/363 9/21/371
f 9/21/371 118/118/363 10/23/364
s off
f 59/59/372 58/58/373 62/63/374 61/62/375 60/61/376
f 77/77/377 76/76/378 80/81/379 79/80/380 78/79/381
f 71/71/382 70/70/383 74/75/384 73/74/385 72/73/386
f 107/107/387 106/106/388 110/111/389 109/110/390 108/109/391
f 101/101/392 100/100/393 104/105/394 103/104/395 102/103/396
f 83/83/397 82/82/398 86/87/399 85/86/400 84/85/401
f 113/113/402 112/112/403 116/117/404 115/116/405 114/115/406
f 89/89/407 88/88/408 92/93/409 91/92/410 90/91/411
f 65/65/412 64/64/413 68/69/414 67/68/415 66/67/416
f 95/95/417 94/94/418 98/99/419 97/98/420 96/97/421
