# This file uses centimeters as units for non-parametric coordinates.

mtllib orb.mtl
g default
v 0.000000 4.000000 -1.000000
v 0.723607 4.525731 -0.447214
v -0.276393 4.850651 -0.447214
v -0.894427 4.000000 -0.447214
v -0.276393 3.149349 -0.447214
v 0.723607 3.474269 -0.447214
v 0.894427 4.000000 0.447214
v 0.276393 4.850651 0.447214
v -0.723607 4.525731 0.447214
v -0.723607 3.474269 0.447214
v 0.276393 3.149349 0.447214
v 0.000000 4.000000 1.000000
vt 0.331763 0.713342
vt 0.270134 0.765245
vt 0.049310 0.841734
vt 0.019623 0.727001
vt 0.039175 0.610113
vt 0.265836 0.667020
vt 0.213290 0.718526
vt 0.191799 0.824308
vt 0.103101 0.772751
vt 0.098785 0.674134
vt 0.182641 0.615026
vt 0.157711 0.720958
vt 0.344598 0.815842
vt 0.419470 0.709504
vt 0.335595 0.610113
vn 0.187593 0.577350 -0.794654
vn 0.187593 0.577350 -0.794654
vn 0.187592 0.577350 -0.794654
vn -0.491123 0.356822 -0.794654
vn -0.491123 0.356822 -0.794655
vn -0.491123 0.356822 -0.794654
vn -0.491123 -0.356822 -0.794654
vn -0.491123 -0.356822 -0.794655
vn -0.491123 -0.356822 -0.794655
vn 0.187592 -0.577350 -0.794655
vn 0.187592 -0.577350 -0.794655
vn 0.187592 -0.577350 -0.794655
vn 0.607062 -0.000000 -0.794654
vn 0.607062 -0.000000 -0.794654
vn 0.607062 -0.000000 -0.794654
vn 0.303531 0.934172 -0.187592
vn 0.303531 0.934172 -0.187592
vn 0.303531 0.934172 -0.187592
vn -0.794654 0.577350 -0.187593
vn -0.794654 0.577350 -0.187593
vn -0.794654 0.577350 -0.187593
vn -0.794654 -0.577350 -0.187592
vn -0.794655 -0.577350 -0.187592
vn -0.794655 -0.577350 -0.187592
vn 0.303531 -0.934172 -0.187592
vn 0.303531 -0.934172 -0.187592
vn 0.303531 -0.934172 -0.187592
vn 0.982247 0.000000 -0.187593
vn 0.982247 0.000000 -0.187593
vn 0.982247 0.000000 -0.187593
vn 0.794654 0.577350 0.187593
vn 0.794654 0.577350 0.187593
vn 0.794654 0.577350 0.187592
vn -0.303531 0.934172 0.187593
vn -0.303531 0.934172 0.187593
vn -0.303531 0.934172 0.187593
vn -0.982247 0.000000 0.187593
vn -0.982247 0.000000 0.187593
vn -0.982247 0.000000 0.187593
vn -0.303531 -0.934172 0.187593
vn -0.303531 -0.934172 0.187593
vn -0.303531 -0.934172 0.187593
vn 0.794654 -0.577350 0.187593
vn 0.794655 -0.577350 0.187593
vn 0.794654 -0.577350 0.187593
vn 0.491123 0.356822 0.794654
vn 0.491123 0.356822 0.794654
vn 0.491123 0.356822 0.794654
vn -0.187593 0.577350 0.794654
vn -0.187593 0.577351 0.794654
vn -0.187593 0.577351 0.794654
vn -0.607062 -0.000000 0.794654
vn -0.607062 -0.000000 0.794654
vn -0.607062 -0.000000 0.794655
vn -0.187593 -0.577351 0.794654
vn -0.187593 -0.577351 0.794654
vn -0.187593 -0.577351 0.794654
vn 0.491124 -0.356822 0.794654
vn 0.491124 -0.356822 0.794654
vn 0.491123 -0.356822 0.794654
s off
g orb
usemtl initialShadingGroup
f 1/1/1 3/13/2 2/2/3
f 1/1/4 4/14/5 3/13/6
f 1/1/7 5/15/8 4/14/9
f 1/1/10 6/6/11 5/15/12
f 1/1/13 2/2/14 6/6/15
f 2/2/16 3/13/17 8/8/18
f 3/3/19 4/4/20 9/9/21
f 4/4/22 5/5/23 10/10/24
f 5/15/25 6/6/26 11/11/27
f 6/6/28 2/2/29 7/7/30
f 2/2/31 8/8/32 7/7/33
f 3/3/34 9/9/35 8/8/36
f 4/4/37 10/10/38 9/9/39
f 5/5/40 11/11/41 10/10/42
f 6/6/43 7/7/44 11/11/45
f 7/7/46 8/8/47 12/12/48
f 8/8/49 9/9/50 12/12/51
f 9/9/52 10/10/53 12/12/54
f 10/10/55 11/11/56 12/12/57
f 11/11/58 7/7/59 12/12/60
