# This file uses centimeters as units for non-parametric coordinates.

mtllib podium.mtl
g default
v 8.135319 0.000000 8.765621
v 7.864681 0.000000 8.765621
v 7.729363 0.000000 9.000000
v 7.864681 0.000000 9.234379
v 8.135319 0.000000 9.234379
v 8.270637 0.000000 9.000000
v 8.270637 0.000000 8.531243
v 7.729363 0.000000 8.531243
v 7.458726 0.000000 9.000000
v 7.729363 0.000000 9.468757
v 8.270637 0.000000 9.468757
v 8.541274 0.000000 9.000000
v 8.500000 0.952185 8.133975
v 7.500000 0.952185 8.133974
v 7.000000 0.952185 9.000000
v 7.500000 0.952185 9.866025
v 8.500000 0.952185 9.866025
v 9.000000 0.952185 9.000000
v 8.250000 2.000000 8.566987
v 7.750000 2.000000 8.566987
v 7.500000 2.000000 9.000000
v 7.750000 2.000000 9.433013
v 8.250000 2.000000 9.433013
v 8.500000 2.000000 9.000000
v 8.000000 0.000000 9.000000
v 8.000000 2.000000 9.000000
v 8.611421 2.200993 7.940988
v 7.388579 2.200993 7.940988
v 7.579631 2.059256 8.271899
v 8.420369 2.059256 8.271900
v 6.777158 2.200993 9.000000
v 7.159262 2.059256 9.000000
v 7.388579 2.200993 10.059012
v 7.579631 2.059256 9.728100
v 8.611421 2.200993 10.059012
v 8.420369 2.059256 9.728101
v 9.222842 2.200993 9.000000
v 8.840738 2.059256 9.000000
vt 0.539062 0.088592
vt 0.460938 0.088592
vt 0.421875 0.156250
vt 0.460938 0.223908
vt 0.539062 0.223908
vt 0.578125 0.156250
vt 0.578125 0.020934
vt 0.421875 0.020934
vt 0.343750 0.156250
vt 0.421875 0.291566
vt 0.578125 0.291566
vt 0.656250 0.156250
vt 0.375000 0.312500
vt 0.416667 0.312500
vt 0.458333 0.312500
vt 0.500000 0.312500
vt 0.541667 0.312500
vt 0.583333 0.312500
vt 0.625000 0.312500
vt 0.375000 0.687500
vt 0.416667 0.687500
vt 0.458333 0.687500
vt 0.500000 0.687500
vt 0.541667 0.687500
vt 0.583333 0.687500
vt 0.625000 0.687500
vt 0.578125 0.708434
vt 0.421875 0.708434
vt 0.343750 0.843750
vt 0.421875 0.979066
vt 0.578125 0.979066
vt 0.656250 0.843750
vt 0.539062 0.776092
vt 0.460938 0.776092
vt 0.421875 0.843750
vt 0.460938 0.911408
vt 0.539062 0.911408
vt 0.578125 0.843750
vt 0.500000 0.156250
vt 0.500000 0.843750
vt 0.578125 0.979066
vt 0.421875 0.979066
vt 0.460938 0.911408
vt 0.539062 0.911408
vt 0.343750 0.843750
vt 0.421875 0.843750
vt 0.421875 0.708434
vt 0.460938 0.776092
vt 0.578125 0.708434
vt 0.539062 0.776092
vt 0.656250 0.843750
vt 0.578125 0.843750
vn 0.000000 -1.000000 0.000000
vn 0.000000 -1.000000 0.000000
vn 0.000000 -1.000000 0.000000
vn 0.000000 -1.000000 0.000000
vn 0.000000 -1.000000 0.000000
vn 0.000000 -1.000000 0.000000
vn 0.000000 -1.000000 0.000000
vn 0.000000 -1.000000 0.000000
vn 0.000000 -1.000000 0.000000
vn 0.000000 -1.000000 0.000000
vn 0.000000 -1.000000 0.000000
vn 0.000000 -1.000000 0.000000
vn 0.000000 -0.385048 -0.922896
vn 0.000000 -0.385048 -0.922896
vn 0.000000 -0.385048 -0.922896
vn 0.000000 -0.385048 -0.922896
vn -0.799252 -0.385048 -0.461448
vn -0.799252 -0.385048 -0.461448
vn -0.799252 -0.385048 -0.461448
vn -0.799252 -0.385048 -0.461448
vn -0.799252 -0.385048 0.461448
vn -0.799252 -0.385048 0.461448
vn -0.799252 -0.385048 0.461448
vn -0.799252 -0.385048 0.461448
vn -0.000000 -0.385048 0.922896
vn -0.000000 -0.385048 0.922896
vn -0.000000 -0.385048 0.922896
vn -0.000000 -0.385048 0.922896
vn 0.799252 -0.385048 0.461448
vn 0.799252 -0.385048 0.461448
vn 0.799252 -0.385048 0.461448
vn 0.799252 -0.385048 0.461448
vn 0.799252 -0.385048 -0.461448
vn 0.799252 -0.385048 -0.461448
vn 0.799252 -0.385048 -0.461448
vn 0.799252 -0.385048 -0.461448
vn -0.173891 0.937576 0.301188
vn 0.173891 0.937576 0.301187
vn 0.173891 0.937576 0.301187
vn -0.173891 0.937576 0.301188
vn 0.347781 0.937576 0.000000
vn 0.347782 0.937576 -0.000000
vn 0.173891 0.937576 -0.301188
vn 0.173891 0.937576 -0.301188
vn -0.173891 0.937576 -0.301188
vn -0.173891 0.937576 -0.301188
vn -0.347781 0.937576 0.000000
vn -0.347781 0.937576 0.000000
vn 0.000000 -1.000000 0.000000
vn 0.000000 1.000000 0.000000
vn 0.000000 1.000000 -0.000000
vn 0.000000 1.000000 0.000000
vn 0.000000 1.000000 -0.000000
vn 0.000000 1.000000 0.000000
vn 0.000000 1.000000 0.000000
vn 0.000000 1.000000 0.000000
vn 0.000000 -0.152724 -0.988269
vn 0.000000 -0.152724 -0.988269
vn 0.000000 -0.152724 -0.988269
vn 0.000000 -0.152724 -0.988269
vn -0.000000 0.980428 0.196878
vn -0.000000 0.980428 0.196878
vn -0.000000 0.980428 0.196878
vn -0.000000 0.980428 0.196878
vn -0.855866 -0.152724 -0.494135
vn -0.855866 -0.152724 -0.494135
vn -0.855866 -0.152724 -0.494135
vn -0.855866 -0.152724 -0.494135
vn 0.170501 0.980428 0.098439
vn 0.170501 0.980428 0.098439
vn 0.170501 0.980428 0.098439
vn 0.170501 0.980428 0.098439
vn -0.855866 -0.152724 0.494134
vn -0.855866 -0.152724 0.494134
vn -0.855866 -0.152724 0.494134
vn -0.855866 -0.152724 0.494134
vn 0.170501 0.980428 -0.098439
vn 0.170501 0.980428 -0.098439
vn 0.170501 0.980428 -0.098439
vn 0.170501 0.980428 -0.098439
vn -0.000000 -0.152724 0.988269
vn -0.000000 -0.152724 0.988269
vn -0.000000 -0.152724 0.988269
vn -0.000000 -0.152724 0.988269
vn 0.000000 0.980428 -0.196878
vn 0.000000 0.980428 -0.196878
vn 0.000000 0.980428 -0.196878
vn 0.000000 0.980428 -0.196878
vn 0.855866 -0.152724 0.494134
vn 0.855866 -0.152724 0.494134
vn 0.855866 -0.152724 0.494134
vn 0.855866 -0.152724 0.494134
vn -0.170501 0.980428 -0.098439
vn -0.170501 0.980428 -0.098439
vn -0.170501 0.980428 -0.098439
vn -0.170501 0.980428 -0.098439
vn 0.855866 -0.152724 -0.494134
vn 0.855866 -0.152724 -0.494134
vn 0.855866 -0.152724 -0.494134
vn 0.855866 -0.152724 -0.494134
vn -0.170501 0.980428 0.098439
vn -0.170501 0.980428 0.098439
vn -0.170501 0.980428 0.098439
vn -0.170501 0.980428 0.098439
s 1
g podium
usemtl initialShadingGroup
f 1/1/1 2/2/2 8/8/3 7/7/4
f 2/2/2 3/3/5 9/9/6 8/8/3
f 3/3/5 4/4/7 10/10/8 9/9/6
f 4/4/7 5/5/9 11/11/10 10/10/8
f 5/5/9 6/6/11 12/12/12 11/11/10
f 6/6/11 1/1/1 7/7/4 12/12/12
s off
f 7/13/13 8/14/14 14/21/15 13/20/16
f 8/14/17 9/15/18 15/22/19 14/21/20
f 9/15/21 10/16/22 16/23/23 15/22/24
f 10/16/25 11/17/26 17/24/27 16/23/28
f 11/17/29 12/18/30 18/25/31 17/24/32
f 12/18/33 7/19/34 13/26/35 18/25/36
s 2
f 27/41/37 28/42/38 29/43/39 30/44/40
f 28/42/38 31/45/41 32/46/42 29/43/39
f 31/45/41 33/47/43 34/48/44 32/46/42
f 33/47/43 35/49/45 36/50/46 34/48/44
f 35/49/45 37/51/47 38/52/48 36/50/46
f 37/51/47 27/41/37 30/44/40 38/52/48
s 1
f 2/2/2 1/1/1 25/39/49
f 3/3/5 2/2/2 25/39/49
f 4/4/7 3/3/5 25/39/49
f 5/5/9 4/4/7 25/39/49
f 6/6/11 5/5/9 25/39/49
f 1/1/1 6/6/11 25/39/49
s 3
f 19/37/50 20/36/51 26/40/52
f 20/36/51 21/35/53 26/40/52
f 21/35/53 22/34/54 26/40/52
f 22/34/54 23/33/55 26/40/52
f 23/33/55 24/38/56 26/40/52
f 24/38/56 19/37/50 26/40/52
s off
f 13/31/57 14/30/58 28/42/59 27/41/60
f 20/36/61 19/37/62 30/44/63 29/43/64
f 14/30/65 15/29/66 31/45/67 28/42/68
f 21/35/69 20/36/70 29/43/71 32/46/72
f 15/29/73 16/28/74 33/47/75 31/45/76
f 22/34/77 21/35/78 32/46/79 34/48/80
f 16/28/81 17/27/82 35/49/83 33/47/84
f 23/33/85 22/34/86 34/48/87 36/50/88
f 17/27/89 18/32/90 37/51/91 35/49/92
f 24/38/93 23/33/94 36/50/95 38/52/96
f 18/32/97 13/31/98 27/41/99 37/51/100
f 19/37/101 24/38/102 38/52/103 30/44/104
