# This file uses centimeters as units for non-parametric coordinates.

mtllib rock.mtl
g default
v -1.442512 0.000000 -1.743596
v -0.116738 0.000000 -1.839862
v -1.116738 0.000000 -3.222024
v -0.116738 0.000000 -3.222024
v -1.427557 0.000000 -2.397350
v 0.165270 0.000000 -2.416924
v -0.471456 0.000000 -1.582597
v -0.616738 0.000000 -2.339862
v -0.664702 0.000000 -3.344352
v -1.621009 0.547125 -1.595731
v -0.406468 0.547125 -1.307013
v -1.300400 0.547125 -3.424252
v -0.671353 0.547125 -3.642218
v -1.724537 0.547125 -2.454975
v 0.061507 0.547125 -3.422502
v 0.447941 0.547125 -2.400278
v 0.111207 0.547125 -1.648280
v -1.369917 0.980870 -1.575103
v -0.432814 1.092712 -1.509782
v -1.162154 0.994241 -3.286469
v -0.520812 1.098667 -3.278402
v -1.506841 0.989875 -2.428083
v -0.115241 1.096580 -3.168315
v 0.106508 1.097852 -2.568114
v -0.034472 1.102261 -1.772091
v -0.530900 1.227136 -2.313684
vt 0.256766 0.896410
vt 0.256766 0.840126
vt 0.294107 0.844058
vt 0.294107 0.910212
vt 0.256766 0.795507
vt 0.294107 0.785415
vt 0.324325 0.842223
vt 0.324623 0.900808
vt 0.323710 0.784007
vt 0.033694 0.845168
vt 0.033694 0.786766
vt 0.073383 0.772223
vt 0.073383 0.846376
vt 0.113241 0.790662
vt 0.113333 0.834201
vt 0.033694 0.887029
vt 0.073383 0.900926
vt 0.113653 0.891945
vt 0.033694 0.905691
vt 0.073383 0.925682
vt 0.112960 0.910973
vt 0.229927 0.795770
vt 0.220724 0.747799
vt 0.270261 0.742918
vt 0.252397 0.779473
vt 0.169360 0.744158
vt 0.168413 0.785571
vt 0.217685 0.684168
vt 0.252397 0.691917
vt 0.189050 0.691917
vt 0.146284 0.924511
vt 0.124187 0.869482
vt 0.186752 0.862148
vt 0.187398 0.923993
vt 0.132965 0.814800
vt 0.193040 0.810612
vt 0.227614 0.878459
vt 0.213398 0.916936
vt 0.218576 0.827428
vt 0.121555 0.564912
vt 0.121555 0.501034
vt 0.157546 0.496759
vt 0.157546 0.576654
vt 0.193437 0.498492
vt 0.186079 0.560137
vt 0.247367 0.614258
vt 0.247367 0.645238
vt 0.209871 0.657825
vt 0.209871 0.614714
vt 0.179228 0.648350
vt 0.172071 0.604397
vt 0.247367 0.576704
vt 0.209871 0.564488
vt 0.172214 0.576601
vn 0.000000 -1.000000 0.000000
vn 0.000000 -1.000000 0.000000
vn 0.000000 -1.000000 0.000000
vn 0.000000 -1.000000 0.000000
vn 0.000000 -1.000000 0.000000
vn 0.000000 -1.000000 0.000000
vn 0.000000 -1.000000 0.000000
vn 0.000000 -1.000000 0.000000
vn 0.000000 -1.000000 0.000000
vn 0.000000 -1.000000 0.000000
vn 0.000000 -1.000000 0.000000
vn 0.000000 -1.000000 0.000000
vn 0.000000 -1.000000 0.000000
vn 0.000000 -1.000000 0.000000
vn 0.000000 -1.000000 0.000000
vn 0.000000 -1.000000 0.000000
vn -0.187130 -0.371344 0.909443
vn -0.187130 -0.371344 0.909443
vn -0.187130 -0.371344 0.909443
vn -0.187130 -0.371344 0.909443
vn -0.269818 -0.438676 -0.857183
vn -0.269818 -0.438676 -0.857183
vn -0.269818 -0.438676 -0.857183
vn -0.269818 -0.438676 -0.857183
vn -0.828825 -0.444691 -0.339558
vn -0.828825 -0.444691 -0.339558
vn -0.828825 -0.444691 -0.339558
vn -0.828825 -0.444691 -0.339558
vn 0.855362 -0.412858 -0.312895
vn 0.855362 -0.412858 -0.312895
vn 0.855362 -0.412858 -0.312895
vn 0.855362 -0.412858 -0.312895
vn -0.914222 -0.401664 0.053520
vn -0.914222 -0.401664 0.053520
vn -0.914222 -0.401664 0.053520
vn -0.914222 -0.401664 0.053520
vn 0.809773 -0.449607 0.376989
vn 0.809773 -0.449607 0.376989
vn 0.809774 -0.449607 0.376989
vn 0.809773 -0.449607 0.376989
vn 0.505300 -0.449704 0.736504
vn 0.505301 -0.449704 0.736504
vn 0.505300 -0.449704 0.736504
vn 0.505300 -0.449704 0.736504
vn 0.232559 -0.433068 -0.870843
vn 0.232559 -0.433068 -0.870843
vn 0.232559 -0.433068 -0.870843
vn 0.232559 -0.433068 -0.870843
vn -0.169473 0.217661 0.961199
vn -0.169473 0.217661 0.961199
vn -0.169473 0.217661 0.961199
vn -0.169473 0.217661 0.961199
vn -0.181246 0.482756 -0.856794
vn -0.181246 0.482756 -0.856794
vn -0.181246 0.482756 -0.856794
vn -0.181246 0.482756 -0.856794
vn -0.843912 0.403076 -0.354037
vn -0.843912 0.403076 -0.354037
vn -0.843912 0.403076 -0.354037
vn -0.843912 0.403076 -0.354037
vn 0.847804 0.424282 -0.318141
vn 0.847804 0.424282 -0.318141
vn 0.847804 0.424282 -0.318141
vn 0.847804 0.424282 -0.318141
vn -0.877625 0.462579 0.125680
vn -0.877625 0.462579 0.125680
vn -0.877625 0.462579 0.125680
vn -0.877625 0.462579 0.125680
vn 0.855528 0.446137 0.262743
vn 0.855528 0.446137 0.262743
vn 0.855528 0.446137 0.262743
vn 0.855528 0.446137 0.262743
vn 0.519594 0.316653 0.793570
vn 0.519594 0.316653 0.793570
vn 0.519594 0.316653 0.793570
vn 0.519594 0.316653 0.793570
vn 0.245073 0.478977 -0.842924
vn 0.245073 0.478977 -0.842924
vn 0.245073 0.478977 -0.842924
vn 0.245073 0.478977 -0.842924
vn -0.197962 0.974584 -0.104865
vn -0.197962 0.974584 -0.104865
vn -0.197962 0.974584 -0.104865
vn -0.197962 0.974584 -0.104865
vn -0.188508 0.975755 0.111205
vn -0.188508 0.975755 0.111205
vn -0.188508 0.975755 0.111205
vn -0.188508 0.975755 0.111205
vn 0.111150 0.989055 -0.097032
vn 0.111150 0.989055 -0.097032
vn 0.111150 0.989055 -0.097032
vn 0.111150 0.989055 -0.097032
vn 0.155762 0.984203 0.084156
vn 0.155762 0.984203 0.084156
vn 0.155762 0.984203 0.084156
vn 0.155762 0.984203 0.084156
s off
g rock
usemtl initialShadingGroup
f 7/22/1 8/23/2 6/24/3 2/25/4
f 8/23/5 9/28/6 4/29/7 6/24/8
f 5/26/9 8/23/10 7/22/11 1/27/12
f 3/30/13 9/28/14 8/23/15 5/26/16
f 1/40/17 7/41/18 11/42/19 10/43/20
f 9/46/21 3/47/22 12/48/23 13/49/24
f 3/1/25 5/2/26 14/3/27 12/4/28
f 6/10/29 4/11/30 15/12/31 16/13/32
f 5/2/33 1/5/34 10/6/35 14/3/36
f 2/16/37 6/10/38 16/13/39 17/17/40
f 7/19/41 2/16/42 17/17/43 11/20/44
f 4/52/45 9/46/46 13/49/47 15/53/48
f 10/43/49 11/42/50 19/44/51 18/45/52
f 13/49/53 12/48/54 20/50/55 21/51/56
f 12/4/57 14/3/58 22/7/59 20/8/60
f 16/13/61 15/12/62 23/14/63 24/15/64
f 14/3/65 10/6/66 18/9/67 22/7/68
f 17/17/69 16/13/70 24/15/71 25/18/72
f 11/20/73 17/17/74 25/18/75 19/21/76
f 15/53/77 13/49/78 21/51/79 23/54/80
f 20/31/81 22/32/82 26/33/83 21/34/84
f 22/32/85 18/35/86 19/36/87 26/33/88
f 21/34/89 26/33/90 24/37/91 23/38/92
f 25/39/93 24/37/94 26/33/95 19/36/96
