# This file uses centimeters as units for non-parametric coordinates.

mtllib sign.mtl
g default
v -2.304805 3.310995 0.354106
v 2.304805 3.310995 0.354106
v -2.304805 5.870300 0.354106
v 2.304805 5.870300 0.354106
v -2.304805 5.870300 -0.354106
v 2.304805 5.870300 -0.354106
v -2.304805 3.310995 -0.354106
v 2.304805 3.310995 -0.354106
v 0.312339 3.310995 0.354106
v 0.312339 5.870300 0.354106
v 0.312339 5.870300 -0.354106
v 0.312339 3.310995 -0.354106
v -0.312339 3.310995 0.354106
v -0.312339 5.870300 0.354106
v -0.312339 5.870300 -0.354106
v -0.312339 3.310995 -0.354106
v -0.220606 5.870300 -0.250107
v 0.220606 5.870300 -0.250107
v -0.220606 5.870300 0.250107
v 0.220606 5.870300 0.250107
v -0.220606 3.310995 0.250107
v 0.220606 3.310995 0.250107
v -0.220606 3.310995 -0.250107
v 0.220606 3.310995 -0.250107
v -0.220606 6.170191 -0.250107
v 0.220606 6.170191 -0.250107
v -0.220606 6.170191 0.250107
v 0.220606 6.170191 0.250107
v -0.220606 0.394557 0.250107
v 0.220606 0.394557 0.250107
v -0.220606 0.394557 -0.250107
v 0.220606 0.394557 -0.250107
vt 0.869621 0.774491
vt 0.869373 0.872513
vt 0.771598 0.774243
vt 0.771350 0.872265
vt 0.673576 0.773995
vt 0.673328 0.872017
vt 0.575554 0.773746
vt 0.575306 0.871769
vt 0.477531 0.773498
vt 0.477283 0.871521
vt 0.869124 0.970535
vt 0.771102 0.970287
vt 0.869869 0.676468
vt 0.771846 0.676220
vt 0.869472 0.833304
vt 0.477383 0.832312
vt 0.771450 0.833056
vt 0.673427 0.832808
vt 0.575405 0.832560
vt 0.869521 0.813700
vt 0.477432 0.812707
vt 0.771499 0.813452
vt 0.673477 0.813203
vt 0.575454 0.812955
vt 0.673427 0.832808
vt 0.673477 0.813203
vt 0.771499 0.813452
vt 0.771450 0.833056
vt 0.477383 0.832312
vt 0.477432 0.812707
vt 0.575454 0.812955
vt 0.575405 0.832560
vt 0.673427 0.832808
vt 0.673477 0.813203
vt 0.771499 0.813452
vt 0.771450 0.833056
vt 0.477383 0.832312
vt 0.477432 0.812707
vt 0.575454 0.812955
vt 0.575405 0.832560
vn 0.000000 0.000000 1.000000
vn 0.000000 0.000000 1.000000
vn 0.000000 0.000000 1.000000
vn 0.000000 0.000000 1.000000
vn 0.000000 1.000000 0.000000
vn 0.000000 1.000000 0.000000
vn 0.000000 1.000000 0.000000
vn 0.000000 1.000000 0.000000
vn 0.000000 0.000000 -1.000000
vn 0.000000 0.000000 -1.000000
vn 0.000000 0.000000 -1.000000
vn 0.000000 0.000000 -1.000000
vn 0.000000 -1.000000 0.000000
vn 0.000000 -1.000000 0.000000
vn 0.000000 -1.000000 0.000000
vn 0.000000 -1.000000 0.000000
vn 1.000000 0.000000 0.000000
vn 1.000000 0.000000 0.000000
vn 1.000000 0.000000 0.000000
vn 1.000000 0.000000 0.000000
vn -1.000000 0.000000 0.000000
vn -1.000000 0.000000 0.000000
vn -1.000000 0.000000 0.000000
vn -1.000000 0.000000 0.000000
vn 0.000000 0.000000 1.000000
vn 0.000000 0.000000 1.000000
vn 0.000000 0.000000 1.000000
vn 0.000000 0.000000 1.000000
vn 0.000000 1.000000 0.000000
vn 0.000000 1.000000 0.000000
vn 0.000000 1.000000 0.000000
vn 0.000000 1.000000 0.000000
vn 0.000000 0.000000 -1.000000
vn 0.000000 0.000000 -1.000000
vn 0.000000 0.000000 -1.000000
vn 0.000000 0.000000 -1.000000
vn 0.000000 -1.000000 0.000000
vn 0.000000 -1.000000 0.000000
vn 0.000000 -1.000000 0.000000
vn 0.000000 -1.000000 0.000000
vn 0.000000 1.000000 0.000000
vn 0.000000 1.000000 0.000000
vn 0.000000 1.000000 0.000000
vn 0.000000 1.000000 0.000000
vn 0.000000 -1.000000 0.000000
vn 0.000000 -1.000000 0.000000
vn 0.000000 -1.000000 0.000000
vn 0.000000 -1.000000 0.000000
vn 0.000000 1.000000 -0.000003
vn 0.000000 1.000000 -0.000003
vn 0.000000 1.000000 -0.000003
vn 0.000000 1.000000 -0.000003
vn 0.000000 1.000000 0.000000
vn 0.000000 1.000000 0.000000
vn 0.000000 1.000000 0.000000
vn 0.000000 1.000000 0.000000
vn 0.000000 1.000000 0.000003
vn 0.000000 1.000000 0.000003
vn 0.000000 1.000000 0.000003
vn 0.000000 1.000000 0.000003
vn 0.000000 1.000000 0.000000
vn 0.000000 1.000000 0.000000
vn 0.000000 1.000000 0.000000
vn 0.000000 1.000000 0.000000
vn 0.000000 -1.000000 0.000000
vn 0.000000 -1.000000 0.000000
vn 0.000000 -1.000000 0.000000
vn 0.000000 -1.000000 0.000000
vn 0.000000 -1.000000 0.000000
vn 0.000000 -1.000000 0.000000
vn 0.000000 -1.000000 0.000000
vn 0.000000 -1.000000 0.000000
vn 0.000000 -1.000000 0.000000
vn 0.000000 -1.000000 0.000000
vn 0.000000 -1.000000 0.000000
vn 0.000000 -1.000000 0.000000
vn 0.000000 -1.000000 0.000000
vn 0.000000 -1.000000 0.000000
vn 0.000000 -1.000000 0.000000
vn 0.000000 -1.000000 0.000000
vn 0.000000 0.000000 -1.000000
vn 0.000000 0.000000 -1.000000
vn 0.000000 0.000000 -1.000000
vn 0.000000 0.000000 -1.000000
vn -1.000000 0.000000 0.000000
vn -1.000000 0.000000 0.000000
vn -1.000000 0.000000 0.000000
vn -1.000000 0.000000 0.000000
vn 0.000000 0.000000 1.000000
vn 0.000000 0.000000 1.000000
vn 0.000000 0.000000 1.000000
vn 0.000000 0.000000 1.000000
vn 1.000000 0.000000 0.000000
vn 1.000000 0.000000 0.000000
vn 1.000000 0.000000 0.000000
vn 1.000000 0.000000 0.000000
vn 0.000000 0.000000 1.000000
vn 0.000000 0.000000 1.000000
vn 0.000000 0.000000 1.000000
vn 0.000000 0.000000 1.000000
vn -1.000000 0.000000 0.000000
vn -1.000000 0.000000 0.000000
vn -1.000000 0.000000 0.000000
vn -1.000000 0.000000 0.000000
vn 0.000000 0.000000 -1.000000
vn 0.000000 0.000000 -1.000000
vn 0.000000 0.000000 -1.000000
vn 0.000000 0.000000 -1.000000
vn 1.000000 0.000000 0.000000
vn 1.000000 0.000000 0.000000
vn 1.000000 0.000000 0.000000
vn 1.000000 0.000000 0.000000
s 1
g sign
usemtl initialShadingGroup
f 1/1/1 13/20/2 14/22/3 3/3/4
s off
f 3/3/5 14/22/6 15/23/7 5/5/8
s 2
f 5/5/9 15/23/10 16/24/11 7/7/12
s off
f 7/7/13 16/24/14 13/21/15 1/9/16
f 2/2/17 8/11/18 6/12/19 4/4/20
f 7/13/21 1/1/22 3/3/23 5/14/24
s 1
f 10/17/25 9/15/26 2/2/27 4/4/28
s off
f 11/18/29 10/17/30 4/4/31 6/6/32
s 2
f 12/19/33 11/18/34 6/6/35 8/8/36
s off
f 9/16/37 12/19/38 8/8/39 2/10/40
s 1
f 10/17/25 14/22/3 13/20/2 9/15/26
s off
f 26/33/41 25/34/42 27/35/43 28/36/44
s 2
f 12/19/33 16/24/11 15/23/10 11/18/34
s off
f 30/37/45 29/38/46 31/39/47 32/40/48
f 11/18/49 15/23/50 17/26/51 18/25/52
f 15/23/53 14/22/54 19/27/55 17/26/56
f 14/22/57 10/17/58 20/28/59 19/27/60
f 10/17/61 11/18/62 18/25/63 20/28/64
f 9/16/65 13/21/66 21/30/67 22/29/68
f 13/21/69 16/24/70 23/31/71 21/30/72
f 16/24/73 12/19/74 24/32/75 23/31/76
f 12/19/77 9/16/78 22/29/79 24/32/80
f 18/25/81 17/26/82 25/34/83 26/33/84
f 17/26/85 19/27/86 27/35/87 25/34/88
f 19/27/89 20/28/90 28/36/91 27/35/92
f 20/28/93 18/25/94 26/33/95 28/36/96
f 22/29/97 21/30/98 29/38/99 30/37/100
f 21/30/101 23/31/102 31/39/103 29/38/104
f 23/31/105 24/32/106 32/40/107 31/39/108
f 24/32/109 22/29/110 30/37/111 32/40/112
