# This file uses centimeters as units for non-parametric coordinates.

mtllib tree.mtl
g default
v 10.154139 8.435482 -10.129902
v 8.084313 8.435482 -12.199728
v 5.256878 8.435482 -12.957337
v 2.429444 8.435482 -12.199728
v 0.359618 8.435482 -10.129902
v -0.397991 8.435482 -7.302468
v 0.359618 8.435482 -4.475033
v 2.429444 8.435482 -2.405208
v 5.256878 8.435482 -1.647599
v 8.084313 8.435482 -2.405208
v 10.154139 8.435482 -4.475033
v 10.911748 8.435482 -7.302468
v 7.786252 17.517723 -8.762803
v 6.717213 17.517723 -9.831842
v 5.256878 17.517723 -10.223137
v 3.796544 17.517723 -9.831842
v 2.727505 17.517723 -8.762803
v 2.336209 17.517723 -7.302468
v 2.727505 17.517723 -5.842133
v 3.796544 17.517723 -4.773094
v 5.256878 17.517723 -4.381798
v 6.717213 17.517723 -4.773094
v 7.786252 17.517723 -5.842133
v 8.177548 17.517723 -7.302468
v 8.285025 17.553129 -9.050769
v 7.005180 17.553129 -10.330614
v 5.256878 17.553129 -10.799070
v 3.508577 17.553129 -10.330614
v 2.228732 17.553129 -9.050769
v 1.760276 17.553129 -7.302468
v 2.228732 17.553129 -5.554167
v 3.508577 17.553129 -4.274322
v 5.256878 17.553129 -3.805866
v 7.005180 17.553129 -4.274322
v 8.285025 17.553129 -5.554167
v 8.753481 17.553129 -7.302468
v 5.256878 29.600388 -7.302468
v 6.185824 8.435482 -7.838795
v 5.793206 8.435482 -8.231413
v 5.256878 8.435482 -8.375122
v 4.720551 8.435482 -8.231413
v 4.327933 8.435482 -7.838795
v 4.184224 8.435482 -7.302468
v 4.327933 8.435482 -6.766141
v 4.720551 8.435482 -6.373522
v 5.256878 8.435482 -6.229814
v 5.793206 8.435482 -6.373522
v 6.185824 8.435482 -6.766141
v 6.329533 8.435482 -7.302468
v 6.185824 0.000000 -7.838795
v 5.793206 0.000000 -8.231413
v 5.256878 0.000000 -8.375122
v 4.720551 0.000000 -8.231413
v 4.327933 0.000000 -7.838795
v 4.184224 0.000000 -7.302468
v 4.327933 0.000000 -6.766141
v 4.720551 0.000000 -6.373522
v 5.256878 0.000000 -6.229814
v 5.793206 0.000000 -6.373522
v 6.185824 0.000000 -6.766141
v 6.329533 0.000000 -7.302468
v 5.256878 0.000000 -7.302468
vt 0.564438 0.619023
vt 0.564438 0.529675
vt 0.851440 0.529675
vt 0.851440 0.575822
vt 0.564438 0.440327
vt 0.851440 0.483528
vt 0.564438 0.684430
vt 0.851440 0.609604
vt 0.564438 0.374920
vt 0.851440 0.449746
vt 0.564438 0.619023
vt 0.564438 0.529675
vt 0.851440 0.529675
vt 0.851440 0.575822
vt 0.564438 0.440327
vt 0.851440 0.483528
vt 0.564438 0.684430
vt 0.851440 0.609604
vt 0.564438 0.374920
vt 0.851440 0.449746
vt 0.462110 0.001885
vt 0.517357 0.001885
vt 0.517357 0.382582
vt 0.572604 0.001885
vt 0.421667 0.001885
vt 0.613047 0.001885
vt 0.462110 0.001885
vt 0.517357 0.001885
vt 0.517357 0.382582
vt 0.572604 0.001885
vt 0.421667 0.001885
vt 0.613047 0.001885
vt 0.523661 0.426932
vt 0.523548 0.443879
vt 0.256990 0.442098
vt 0.257103 0.425150
vt 0.523465 0.456286
vt 0.256907 0.454504
vt 0.523775 0.409984
vt 0.257217 0.408202
vt 0.523858 0.397577
vt 0.257299 0.395796
vt 0.257103 0.425150
vt 0.257217 0.408202
vt 0.523775 0.409984
vt 0.523661 0.426932
vt 0.257299 0.395796
vt 0.523857 0.397577
vt 0.256990 0.442098
vt 0.523548 0.443879
vt 0.256907 0.454504
vt 0.523465 0.456286
vt 0.460876 0.579684
vt 0.427094 0.545902
vt 0.436194 0.530140
vt 0.476638 0.570584
vt 0.380947 0.533537
vt 0.380947 0.515337
vt 0.473241 0.625831
vt 0.491441 0.625831
vt 0.334800 0.545902
vt 0.325700 0.530140
vt 0.460876 0.671978
vt 0.476638 0.681078
vt 0.301018 0.579684
vt 0.285257 0.570584
vt 0.427094 0.705760
vt 0.436194 0.721521
vt 0.288653 0.625831
vt 0.270454 0.625831
vt 0.380947 0.718125
vt 0.380947 0.736324
vt 0.301018 0.671978
vt 0.285257 0.681078
vt 0.334800 0.705760
vt 0.325700 0.721521
vt 0.901691 0.025825
vt 0.967098 0.091232
vt 0.841698 0.163632
vt 0.829291 0.151225
vt 0.991039 0.180580
vt 0.846240 0.180580
vt 0.812343 0.001885
vt 0.812343 0.146684
vt 0.967098 0.269928
vt 0.841698 0.197528
vt 0.722995 0.025825
vt 0.795395 0.151225
vt 0.901691 0.335335
vt 0.829291 0.209935
vt 0.657588 0.091232
vt 0.782988 0.163632
vt 0.812343 0.359276
vt 0.812343 0.214476
vt 0.633648 0.180580
vt 0.778447 0.180580
vt 0.722995 0.335335
vt 0.795395 0.209935
vt 0.657588 0.269928
vt 0.782988 0.197528
vt 0.628865 0.276127
vt 0.641272 0.288534
vt 0.611917 0.305482
vt 0.645813 0.305482
vt 0.611917 0.271585
vt 0.641272 0.322430
vt 0.594969 0.276127
vt 0.628865 0.334837
vt 0.582562 0.288534
vt 0.611917 0.339378
vt 0.578021 0.305482
vt 0.594969 0.334837
vt 0.582562 0.322430
vt 0.470747 0.363113
vt 0.381399 0.363113
vt 0.381399 0.076111
vt 0.427547 0.076111
vt 0.292052 0.363113
vt 0.335252 0.076111
vt 0.470747 0.363113
vt 0.381399 0.363113
vt 0.381399 0.076111
vt 0.427547 0.076111
vt 0.292052 0.363113
vt 0.335252 0.076111
vt 0.209016 0.001787
vt 0.264263 0.001885
vt 0.263586 0.382581
vt 0.319510 0.001983
vt 0.209016 0.001786
vt 0.264263 0.001885
vt 0.263586 0.382581
vt 0.319510 0.001983
vt 0.256747 0.478484
vt 0.256860 0.461536
vt 0.523418 0.463318
vt 0.523305 0.480265
vt 0.256633 0.495431
vt 0.523191 0.497213
vt 0.256747 0.478484
vt 0.256860 0.461536
vt 0.523418 0.463318
vt 0.523305 0.480265
vt 0.256633 0.495431
vt 0.523191 0.497213
vn 0.678982 0.279225 -0.678982
vn 0.678982 0.279225 -0.678982
vn 0.678982 0.279225 -0.678982
vn 0.678982 0.279225 -0.678982
vn 0.248525 0.279225 -0.927507
vn 0.248525 0.279225 -0.927507
vn 0.248525 0.279225 -0.927507
vn 0.248525 0.279225 -0.927507
vn -0.248525 0.279225 -0.927507
vn -0.248525 0.279225 -0.927507
vn -0.248525 0.279225 -0.927507
vn -0.248525 0.279225 -0.927507
vn -0.678982 0.279225 -0.678982
vn -0.678982 0.279225 -0.678982
vn -0.678982 0.279225 -0.678982
vn -0.678982 0.279225 -0.678982
vn -0.927507 0.279225 -0.248525
vn -0.927507 0.279225 -0.248525
vn -0.927507 0.279225 -0.248525
vn -0.927507 0.279225 -0.248525
vn -0.927507 0.279225 0.248525
vn -0.927507 0.279225 0.248525
vn -0.927507 0.279225 0.248525
vn -0.927507 0.279225 0.248525
vn -0.678982 0.279225 0.678982
vn -0.678982 0.279225 0.678982
vn -0.678982 0.279225 0.678982
vn -0.678982 0.279225 0.678982
vn -0.248525 0.279225 0.927507
vn -0.248525 0.279225 0.927507
vn -0.248525 0.279225 0.927507
vn -0.248525 0.279225 0.927507
vn 0.248525 0.279225 0.927507
vn 0.248525 0.279225 0.927507
vn 0.248525 0.279225 0.927507
vn 0.248525 0.279225 0.927507
vn 0.678982 0.279225 0.678982
vn 0.678982 0.279225 0.678982
vn 0.678982 0.279225 0.678982
vn 0.678982 0.279225 0.678982
vn 0.927507 0.279225 0.248525
vn 0.927507 0.279225 0.248525
vn 0.927507 0.279225 0.248525
vn 0.927507 0.279225 0.248525
vn 0.927507 0.279225 -0.248525
vn 0.927507 0.279225 -0.248525
vn 0.927507 0.279225 -0.248525
vn 0.927507 0.279225 -0.248525
vn 0.680856 0.269943 -0.680856
vn 0.680856 0.269943 -0.680856
vn 0.680856 0.269943 -0.680856
vn 0.249211 0.269943 -0.930067
vn 0.249211 0.269943 -0.930067
vn 0.249211 0.269943 -0.930067
vn -0.249211 0.269943 -0.930067
vn -0.249211 0.269943 -0.930067
vn -0.249211 0.269943 -0.930067
vn -0.680856 0.269943 -0.680856
vn -0.680856 0.269943 -0.680856
vn -0.680856 0.269943 -0.680856
vn -0.930067 0.269943 -0.249211
vn -0.930067 0.269943 -0.249211
vn -0.930067 0.269943 -0.249211
vn -0.930067 0.269943 0.249211
vn -0.930067 0.269943 0.249211
vn -0.930067 0.269943 0.249211
vn -0.680856 0.269943 0.680856
vn -0.680856 0.269943 0.680856
vn -0.680856 0.269943 0.680856
vn -0.249211 0.269943 0.930067
vn -0.249211 0.269943 0.930067
vn -0.249211 0.269943 0.930067
vn 0.249211 0.269943 0.930067
vn 0.249211 0.269943 0.930067
vn 0.249211 0.269943 0.930067
vn 0.680856 0.269943 0.680856
vn 0.680856 0.269943 0.680856
vn 0.680856 0.269943 0.680856
vn 0.930067 0.269943 0.249211
vn 0.930067 0.269943 0.249211
vn 0.930067 0.269943 0.249211
vn 0.930067 0.269943 -0.249211
vn 0.930067 0.269943 -0.249211
vn 0.930067 0.269943 -0.249211
vn 0.044913 -0.997981 -0.044912
vn 0.044913 -0.997981 -0.044912
vn 0.044913 -0.997981 -0.044912
vn 0.044913 -0.997981 -0.044912
vn 0.016439 -0.997981 -0.061353
vn 0.016439 -0.997981 -0.061353
vn 0.016439 -0.997981 -0.061353
vn 0.016439 -0.997981 -0.061353
vn -0.016439 -0.997981 -0.061352
vn -0.016439 -0.997981 -0.061352
vn -0.016439 -0.997981 -0.061352
vn -0.016439 -0.997981 -0.061352
vn -0.044913 -0.997981 -0.044912
vn -0.044913 -0.997981 -0.044912
vn -0.044913 -0.997981 -0.044912
vn -0.044913 -0.997981 -0.044912
vn -0.061352 -0.997981 -0.016439
vn -0.061352 -0.997981 -0.016439
vn -0.061352 -0.997981 -0.016439
vn -0.061352 -0.997981 -0.016439
vn -0.061352 -0.997981 0.016439
vn -0.061352 -0.997981 0.016439
vn -0.061352 -0.997981 0.016439
vn -0.061352 -0.997981 0.016439
vn -0.044913 -0.997981 0.044912
vn -0.044913 -0.997981 0.044912
vn -0.044913 -0.997981 0.044912
vn -0.044913 -0.997981 0.044912
vn -0.016439 -0.997981 0.061353
vn -0.016439 -0.997981 0.061353
vn -0.016439 -0.997981 0.061353
vn -0.016439 -0.997981 0.061353
vn 0.016439 -0.997981 0.061352
vn 0.016439 -0.997981 0.061352
vn 0.016439 -0.997981 0.061352
vn 0.016439 -0.997981 0.061352
vn 0.044913 -0.997981 0.044912
vn 0.044913 -0.997981 0.044912
vn 0.044913 -0.997981 0.044912
vn 0.044913 -0.997981 0.044912
vn 0.061352 -0.997981 0.016439
vn 0.061352 -0.997981 0.016439
vn 0.061352 -0.997981 0.016439
vn 0.061352 -0.997981 0.016439
vn 0.061352 -0.997981 -0.016439
vn 0.061352 -0.997981 -0.016439
vn 0.061352 -0.997981 -0.016439
vn 0.061352 -0.997981 -0.016439
vn 0.000000 -1.000000 0.000000
vn 0.000000 -1.000000 0.000000
vn 0.000000 -1.000000 0.000000
vn 0.000000 -1.000000 0.000000
vn 0.000000 -1.000000 0.000000
vn 0.000000 -1.000000 0.000000
vn 0.000000 -1.000000 0.000000
vn 0.000000 -1.000000 0.000000
vn 0.000000 -1.000000 0.000000
vn 0.000000 -1.000000 0.000000
vn 0.000000 -1.000000 0.000000
vn 0.000000 -1.000000 0.000000
vn 0.000000 -1.000000 0.000000
vn 0.000000 -1.000000 0.000000
vn 0.000000 -1.000000 0.000000
vn 0.000000 -1.000000 0.000000
vn 0.000000 -1.000000 -0.000000
vn 0.000000 -1.000000 -0.000000
vn 0.000000 -1.000000 -0.000000
vn 0.000000 -1.000000 -0.000000
vn 0.000000 -1.000000 0.000000
vn 0.000000 -1.000000 0.000000
vn 0.000000 -1.000000 0.000000
vn 0.000000 -1.000000 0.000000
vn 0.000000 -1.000000 -0.000000
vn 0.000000 -1.000000 -0.000000
vn 0.000000 -1.000000 -0.000000
vn 0.000000 -1.000000 -0.000000
vn 0.000000 -1.000000 -0.000000
vn 0.000000 -1.000000 -0.000000
vn 0.000000 -1.000000 -0.000000
vn 0.000000 -1.000000 -0.000000
vn 0.000000 -1.000000 0.000000
vn 0.000000 -1.000000 0.000000
vn 0.000000 -1.000000 0.000000
vn 0.000000 -1.000000 0.000000
vn 0.000000 -1.000000 -0.000000
vn 0.000000 -1.000000 -0.000000
vn 0.000000 -1.000000 -0.000000
vn 0.000000 -1.000000 -0.000000
vn 0.000000 -1.000000 0.000000
vn 0.000000 -1.000000 0.000000
vn 0.000000 -1.000000 0.000000
vn 0.000000 -1.000000 0.000000
vn 0.000000 -1.000000 -0.000000
vn 0.000000 -1.000000 -0.000000
vn 0.000000 -1.000000 -0.000000
vn 0.000000 -1.000000 -0.000000
vn 0.707107 0.000000 -0.707107
vn 0.707107 0.000000 -0.707107
vn 0.707107 0.000000 -0.707107
vn 0.707107 0.000000 -0.707107
vn 0.258819 0.000000 -0.965926
vn 0.258819 0.000000 -0.965926
vn 0.258819 0.000000 -0.965926
vn 0.258819 0.000000 -0.965926
vn -0.258819 0.000000 -0.965926
vn -0.258819 0.000000 -0.965926
vn -0.258819 0.000000 -0.965926
vn -0.258819 0.000000 -0.965926
vn -0.707107 0.000000 -0.707107
vn -0.707107 0.000000 -0.707107
vn -0.707107 0.000000 -0.707107
vn -0.707107 0.000000 -0.707107
vn -0.965926 0.000000 -0.258819
vn -0.965926 0.000000 -0.258819
vn -0.965926 0.000000 -0.258819
vn -0.965926 0.000000 -0.258819
vn -0.965926 0.000000 0.258819
vn -0.965926 0.000000 0.258819
vn -0.965926 0.000000 0.258819
vn -0.965926 0.000000 0.258819
vn -0.707107 0.000000 0.707107
vn -0.707107 0.000000 0.707107
vn -0.707107 0.000000 0.707107
vn -0.707107 0.000000 0.707107
vn -0.258819 0.000000 0.965926
vn -0.258819 0.000000 0.965926
vn -0.258819 0.000000 0.965926
vn -0.258819 0.000000 0.965926
vn 0.258819 0.000000 0.965926
vn 0.258819 0.000000 0.965926
vn 0.258819 0.000000 0.965926
vn 0.258819 0.000000 0.965926
vn 0.707107 0.000000 0.707107
vn 0.707107 0.000000 0.707107
vn 0.707107 0.000000 0.707107
vn 0.707107 0.000000 0.707107
vn 0.965926 0.000000 0.258819
vn 0.965926 0.000000 0.258819
vn 0.965926 0.000000 0.258819
vn 0.965926 0.000000 0.258819
vn 0.965926 0.000000 -0.258819
vn 0.965926 0.000000 -0.258819
vn 0.965926 0.000000 -0.258819
vn 0.965926 0.000000 -0.258819
vn 0.000000 -1.000000 0.000000
vn 0.000000 -1.000000 0.000000
vn 0.000000 -1.000000 0.000000
vn 0.000000 -1.000000 0.000000
vn 0.000000 -1.000000 0.000000
vn 0.000000 -1.000000 0.000000
vn 0.000000 -1.000000 0.000000
vn 0.000000 -1.000000 0.000000
vn 0.000000 -1.000000 0.000000
vn 0.000000 -1.000000 0.000000
vn 0.000000 -1.000000 0.000000
vn 0.000000 -1.000000 0.000000
vn 0.000000 -1.000000 0.000000
vn 0.000000 -1.000000 0.000000
vn 0.000000 -1.000000 0.000000
vn 0.000000 -1.000000 0.000000
vn 0.000000 -1.000000 0.000000
vn 0.000000 -1.000000 0.000000
vn 0.000000 -1.000000 0.000000
vn 0.000000 -1.000000 0.000000
vn 0.000000 -1.000000 0.000000
vn 0.000000 -1.000000 0.000000
vn 0.000000 -1.000000 0.000000
vn 0.000000 -1.000000 0.000000
vn 0.000000 -1.000000 0.000000
vn 0.000000 -1.000000 0.000000
vn 0.000000 -1.000000 0.000000
vn 0.000000 -1.000000 0.000000
vn 0.000000 -1.000000 0.000000
vn 0.000000 -1.000000 0.000000
vn 0.000000 -1.000000 0.000000
vn 0.000000 -1.000000 0.000000
vn 0.000000 -1.000000 0.000000
vn 0.000000 -1.000000 0.000000
vn 0.000000 -1.000000 0.000000
vn 0.000000 -1.000000 0.000000
s off
g tree
usemtl initialShadingGroup
f 1/15/1 2/19/2 14/20/3 13/16/4
f 2/114/5 3/115/6 15/116/7 14/117/8
f 3/115/9 4/118/10 16/119/11 15/116/12
f 4/7/13 5/1/14 17/4/15 16/8/16
f 5/1/17 6/2/18 18/3/19 17/4/20
f 6/2/21 7/5/22 19/6/23 18/3/24
f 7/5/25 8/9/26 20/10/27 19/6/28
f 8/120/29 9/121/30 21/122/31 20/123/32
f 9/121/33 10/124/34 22/125/35 21/122/36
f 10/17/37 11/11/38 23/14/39 22/18/40
f 11/11/41 12/12/42 24/13/43 23/14/44
f 12/12/45 1/15/46 13/16/47 24/13/48
f 25/30/49 26/32/50 37/29/51
f 26/126/52 27/127/53 37/128/54
f 27/127/55 28/129/56 37/128/57
f 28/25/58 29/21/59 37/23/60
f 29/21/61 30/22/62 37/23/63
f 30/22/64 31/24/65 37/23/66
f 31/24/67 32/26/68 37/23/69
f 32/130/70 33/131/71 37/132/72
f 33/131/73 34/133/74 37/132/75
f 34/31/76 35/27/77 37/29/78
f 35/27/79 36/28/80 37/29/81
f 36/28/82 25/30/83 37/29/84
f 13/53/85 14/54/86 26/55/87 25/56/88
f 14/54/89 15/57/90 27/58/91 26/55/92
f 15/57/93 16/61/94 28/62/95 27/58/96
f 16/61/97 17/65/98 29/66/99 28/62/100
f 17/65/101 18/69/102 30/70/103 29/66/104
f 18/69/105 19/73/106 31/74/107 30/70/108
f 19/73/109 20/75/110 32/76/111 31/74/112
f 20/75/113 21/71/114 33/72/115 32/76/116
f 21/71/117 22/67/118 34/68/119 33/72/120
f 22/67/121 23/63/122 35/64/123 34/68/124
f 23/63/125 24/59/126 36/60/127 35/64/128
f 24/59/129 13/53/130 25/56/131 36/60/132
f 2/77/133 1/78/134 38/79/135 39/80/136
f 3/83/137 2/77/138 39/80/139 40/84/140
f 4/87/141 3/83/142 40/84/143 41/88/144
f 5/91/145 4/87/146 41/88/147 42/92/148
f 6/95/149 5/91/150 42/92/151 43/96/152
f 7/99/153 6/95/154 43/96/155 44/100/156
f 8/97/157 7/99/158 44/100/159 45/98/160
f 9/93/161 8/97/162 45/98/163 46/94/164
f 10/89/165 9/93/166 46/94/167 47/90/168
f 11/85/169 10/89/170 47/90/171 48/86/172
f 12/81/173 11/85/174 48/86/175 49/82/176
f 1/78/177 12/81/178 49/82/179 38/79/180
f 39/51/181 38/49/182 50/50/183 51/52/184
f 40/134/185 39/135/186 51/136/187 52/137/188
f 41/138/189 40/134/190 52/137/191 53/139/192
f 42/34/193 41/37/194 53/38/195 54/35/196
f 43/33/197 42/34/198 54/35/199 55/36/200
f 44/39/201 43/33/202 55/36/203 56/40/204
f 45/41/205 44/39/206 56/40/207 57/42/208
f 46/140/209 45/141/210 57/142/211 58/143/212
f 47/144/213 46/140/214 58/143/215 59/145/216
f 48/44/217 47/47/218 59/48/219 60/45/220
f 49/43/221 48/44/222 60/45/223 61/46/224
f 38/49/225 49/43/226 61/46/227 50/50/228
f 51/101/229 50/102/230 62/103/231
f 52/105/232 51/101/233 62/103/234
f 53/107/235 52/105/236 62/103/237
f 54/109/238 53/107/239 62/103/240
f 55/111/241 54/109/242 62/103/243
f 56/113/244 55/111/245 62/103/246
f 57/112/247 56/113/248 62/103/249
f 58/110/250 57/112/251 62/103/252
f 59/108/253 58/110/254 62/103/255
f 60/106/256 59/108/257 62/103/258
f 61/104/259 60/106/260 62/103/261
f 50/102/262 61/104/263 62/103/264
